<svg xmlns="http://www.w3.org/2000/svg" xmlns:xlink="http://www.w3.org/1999/xlink" viewBox="0 0 177.96 222.47"><defs><style>.cls-1{fill:#fff;}.cls-15,.cls-2{fill:#e4eaf8;}.cls-3{opacity:0.5;fill:url(#Gradiente_sem_nome_23);}.cls-4{fill:#282828;}.cls-22,.cls-5{fill:#2b2b2b;}.cls-6{fill:#494949;}.cls-7{fill:#1e1e1e;}.cls-8{fill:#e7c426;}.cls-9{fill:#e8cc56;}.cls-10{fill:#7f6b17;}.cls-11{fill:#c4a523;}.cls-12{fill:#e0c62b;}.cls-13{fill:#96bcf4;}.cls-14{fill:#ffd217;}.cls-15{stroke:#141414;}.cls-15,.cls-18,.cls-19,.cls-20{stroke-miterlimit:10;}.cls-16{fill:#f7002f;}.cls-17{fill:#ff1717;}.cls-18,.cls-19,.cls-20{fill:none;}.cls-18{stroke:#e5fc0b;}.cls-18,.cls-19{stroke-width:0.75px;stroke-dasharray:3 3;}.cls-19{stroke:#ffed0b;}.cls-20{stroke:#bbdffd;}.cls-21{font-size:10px;fill:#a39243;font-family:OpenSans-Bold, Open Sans;font-weight:700;}.cls-22{font-size:6px;font-family:OpenSans, Open Sans;}.cls-23{fill:#0e0e0f;}.cls-24{fill:#151415;}.cls-25{fill:#f5d10b;}.cls-26{fill:#f6f8f8;}.cls-27{fill:#f7f9f9;}</style><linearGradient id="Gradiente_sem_nome_23" x1="85.28" y1="111.94" x2="100.43" y2="-46.4" gradientUnits="userSpaceOnUse"><stop offset="0.03" stop-color="#e4eaf8" stop-opacity="0"/><stop offset="0.13" stop-color="#dfe9f9" stop-opacity="0.13"/><stop offset="0.37" stop-color="#d2e5fa" stop-opacity="0.44"/><stop offset="0.59" stop-color="#c8e3fb" stop-opacity="0.68"/><stop offset="0.77" stop-color="#c1e1fc" stop-opacity="0.85"/><stop offset="0.92" stop-color="#bddffd" stop-opacity="0.96"/><stop offset="1" stop-color="#bbdffd"/></linearGradient></defs><title>Asset 3</title><g id="Layer_2" data-name="Layer 2"><g id="OBJECTS"><rect class="cls-1" width="177.96" height="222.47"/><path class="cls-2" d="M165.49,138.58c0,2.36-34.25,4.27-76.51,4.27s-76.51-1.91-76.51-4.27S46.72,134.3,89,134.3,165.49,136.21,165.49,138.58Z"/><path class="cls-3" d="M178,82.47c-11.26,8.19-27.32,6.34-34.24.17-15.32-13.68-18-29.78-29.31-72a54.66,54.66,0,0,0-4-10.65H26.18C17.73,8.62,9.14,17.77,0,26.14V70.48C14.39,63.33,26.44,60,39.14,61.58c44.37,5.53,66.68,49.81,110.5,58.71a73.39,73.39,0,0,0,28.32.15Z"/><path class="cls-4" d="M66,72.85c-.51-1.92-9.45,1.83-14.39,8.9a1.1,1.1,0,0,1-1.86-1.19c.24-.41.55-.87.93-1.44,3.62-5.65,9.1-7.83,10.63-8.85,4.24-2.7-5-2.72-10.43,4.9a1.11,1.11,0,0,1-2-.85c.26-1.25.86-1.59,2.17-2.73,3.89-3.51,7.67-4.19,9-5,1-.52,1.1-1.54-.29-1.75-9.12-.89-12,11.92-9.87,2.8.12-.53,3.73-2.71,7.42-4.2,1.59-1.09-.2-2.47-2.95-1.5a1.11,1.11,0,0,1-1.29-1.7c1.6-2.15,3.12-3.67,2-4.64-1.63-1.52-4.46,3.68-4.5,6.06a1,1,0,0,1-.08.42v0a1.23,1.23,0,0,1-2.16.23c-2-3-5.29-2.79-4.13-.82.05.09,4.72,5.1,4.53,5.85-1.47,5.83.58,2.45-3.38-2.13-1.07-1.25-3.76-3.59-4.54-2.36-.56.86.75,1.77,2.62,4,2.85,3.3,3.73,5.85,4,8a1.1,1.1,0,0,1-2,.69c-4.15-6.38-10.91-9.68-11.59-8.23-.44.95,1.66,1.92,5.07,4.65a38.23,38.23,0,0,1,8.46,10,1,1,0,0,1,.2.56c.39,5.63,1.2,5-1,2C39,74,28.15,73,32.62,76.2c1.72,1.33,9.28,5.13,13.69,10.85a1.11,1.11,0,0,1-1.49,1.61c-7-4.51-14.43-2.14-4.34,2,5.09,2,7.91,4.7,9.34,5.53a1.15,1.15,0,0,1,.5.64c2,6.38,2.06,3.33-2.45.85-8.52-4.74-15.09.42-10.46,1.4,1.51.36,5,.11,8.94,1.7,3.71,1.49,5.85,3.88,6.94,4.62a1.18,1.18,0,0,1,.39.49c2.3,5.33,2.42,3.91-.48,2.34-11-6.17-20.89,1-14.91,1.5,2.08.27,7.14-.92,13.91.95,5.56,1.46,3.48.3,9.07,10.35,7.78,13.89-5.19-9.91-9.37-22.89a1.08,1.08,0,0,1,.12-.91,36,36,0,0,1,5.53-7.59c3.66-3.66,7.39-5.23,8.85-6.39,4-3.07-4.33-4.66-11.43,4.09-5.15,6.3-3.33,13-5.3,2a1.13,1.13,0,0,1,.06-.63C53.68,78.45,66.4,74.31,66,72.85Z"/><path class="cls-5" d="M126.05,83.07c.62-1.45,7.23,2.44,10.36,8.52a.88.88,0,0,0,1.59-.74c-.15-.34-.34-.74-.58-1.23-2.24-4.82-6.31-7.11-7.4-8.08-3.05-2.56,4.24-1.59,7.67,5a.88.88,0,0,0,1.67-.46c-.08-1-.52-1.34-1.42-2.37-2.68-3.17-5.58-4.11-6.56-4.85-.78-.52-.71-1.32.41-1.34,7.26.27,8.14,10.64,7.45,3.25,0-.43-2.64-2.52-5.38-4.09-1.13-1,.42-1.91,2.47-.86a.88.88,0,0,0,1.2-1.2c-1-1.86-2.06-3.21-1.12-3.86,1.44-1,3.12,3.36,2.89,5.23a1,1,0,0,0,0,.34v0a1,1,0,0,0,1.68.41c1.92-2.11,4.44-1.63,3.33-.21-.05.07-4.25,3.51-4.18,4.12.54,4.73-.72,1.86,2.88-1.32,1-.86,3.33-2.41,3.82-1.37.34.74-.78,1.32-2.49,2.84-2.58,2.28-3.54,4.19-4,5.88a.88.88,0,0,0,1.53.76c3.94-4.57,9.59-6.44,10-5.23.25.78-1.5,1.32-4.47,3.11a30.36,30.36,0,0,0-7.71,7,1,1,0,0,0-.22.42c-.9,4.38-1.47,3.82.55,1.7,7.07-7.56,15.71-7.16,11.86-5.12-1.48.86-7.83,3-11.9,7.06a.88.88,0,0,0,1,1.42c5.94-2.8,11.56-.14,3.2,2a35.45,35.45,0,0,0-7.91,3.35.9.9,0,0,0-.47.45c-2.22,4.8-2,2.39,1.84.92,7.19-2.82,11.8,1.93,8.06,2.21-1.22.13-4-.44-7.2.39a21.33,21.33,0,0,0-5.94,2.89,1,1,0,0,0-.36.34c-2.37,4-2.31,2.82.13,1.89,9.32-3.67,16.29,3,11.55,2.77-1.67,0-5.51-1.49-11-.73-4.52.55-2.76-.14-8.21,7.16-7.59,10.08,5.12-7.24,9.78-17a.85.85,0,0,0,0-.73,28.31,28.31,0,0,0-3.53-6.54c-2.49-3.27-5.25-4.89-6.27-6-2.84-2.84,3.89-3.2,8.53,4.42,3.38,5.5,1.24,10.57,3.95,2.15a1,1,0,0,0,0-.5C135.14,88.78,125.59,84.17,126.05,83.07Z"/><path class="cls-4" d="M19.55,107.52a4.42,4.42,0,0,0,1.78,2.89,7.6,7.6,0,0,0,3.3,1.16c2.63.42,6.13.45,10.09,1a37.41,37.41,0,0,1,11.86,3.64,21.09,21.09,0,0,1,7.54,6.17A34.62,34.62,0,0,0,19.55,107.52Z"/><path class="cls-6" d="M19.55,107.52a3.49,3.49,0,0,1,.91-3.28,7.22,7.22,0,0,1,3.94-1.81c3.47-.64,8.36.24,12.83,2.42a34.17,34.17,0,0,1,11.3,9,74.58,74.58,0,0,1,5.59,8.52A34.62,34.62,0,0,0,19.55,107.52Z"/><path class="cls-7" d="M23.91,121.53c1.11,1.64,2.69,1.72,4.56,1.21s4.23-1.58,7-2.48a31.07,31.07,0,0,1,8.89-1.6,16.78,16.78,0,0,1,7,1.2A28,28,0,0,0,23.91,121.53Z"/><path class="cls-6" d="M23.91,121.53c-1.09-1.59-.37-3.32,1.71-4.75a16.76,16.76,0,0,1,9-2.32,26.87,26.87,0,0,1,10.16,2c2.94,1.21,5.12,2.68,6.52,3.36A28,28,0,0,0,23.91,121.53Z"/><path class="cls-8" d="M139.42,126H38.54a6.3,6.3,0,0,0-6.3,6.3h0a6.31,6.31,0,0,0,6.3,6.31H139.42a6.31,6.31,0,0,0,6.3-6.31h0A6.3,6.3,0,0,0,139.42,126Z"/><path class="cls-9" d="M138,127.18H40a3.15,3.15,0,0,0-3.15,3.15h0A3.15,3.15,0,0,0,40,133.48H138a3.15,3.15,0,0,0,3.15-3.15h0A3.15,3.15,0,0,0,138,127.18Z"/><path class="cls-10" d="M92.76,77.37A3.75,3.75,0,1,1,89,73.63,3.75,3.75,0,0,1,92.76,77.37Z"/><path class="cls-8" d="M137.61,126H40.42A48.47,48.47,0,0,1,54.51,91.74h0a48.6,48.6,0,0,1,83,31.53C137.59,124.16,137.61,125.06,137.61,126Z"/><path class="cls-11" d="M137.61,126H40.42A48.47,48.47,0,0,1,54.51,91.74h0c-7.1,9.11,1.23,31.53,32.09,31.53h50.93C137.59,124.16,137.61,125.06,137.61,126Z"/><ellipse class="cls-9" cx="110.23" cy="94.54" rx="5.72" ry="15.89" transform="translate(-29.61 133.71) rotate(-56.27)"/><path class="cls-12" d="M89,68.84,88,53.22a1,1,0,0,1,2-.13v.13Z"/><path class="cls-12" d="M76.25,71.4l-7.41-8a1,1,0,1,1,1.47-1.37l.12.15Z"/><path class="cls-12" d="M101.78,71.4l5.83-9.2a1,1,0,0,1,1.39-.31,1,1,0,0,1,.31,1.38.83.83,0,0,1-.11.15Z"/><circle class="cls-13" cx="130.1" cy="46.43" r="19.85"/><circle class="cls-2" cx="129.86" cy="45.43" r="19.85" transform="translate(55.57 161.23) rotate(-76.6)"/><path class="cls-14" d="M126.93,50.17c0-6.9,3.76-6.21,5.95-9.27,2-2.88-.59-5.91-7-3.36-3.12,1.23-6.5-5.38,4.74-5.38,8.38,0,11.32,7.84,3.78,13.23C127.85,50.21,136.5,50.17,126.93,50.17Zm-.58,6.18c0-4.18,6.32-4.16,6.32,0S126.35,60.52,126.35,56.35Z"/><circle class="cls-15" cx="76.25" cy="32.16" r="16.29" transform="translate(-0.41 63.34) rotate(-45)"/><path class="cls-16" d="M50,47.33c10.12-8.56,3.42-13.17,0-9.45a.77.77,0,0,1-1.13,0c-3.37-3.72-10.07.89,0,9.45A.8.8,0,0,0,50,47.33Z"/><path class="cls-17" d="M115.42,77.6c5.68-4.81,1.92-7.39,0-5.31a.42.42,0,0,1-.63,0c-1.89-2.08-5.65.5,0,5.31A.45.45,0,0,0,115.42,77.6Z"/><path class="cls-18" d="M.28,99.32c6.1,1.67,11.93,1.86,18.86-1.6C38.57,88,37.83,63.37,32.57,43.84c-4.24-15.75-14.24-11.07-13.93-4,.55,12.82,24.26,17.77,38,11"/><path class="cls-19" d="M152,59.59c7.79,4.31,7.18,14.47-.2,15.48-3.05.42-6.69-1.71-5.89-4.68a4.42,4.42,0,0,1,7.15-2.1c8.87,7.42,12.42,36.37,22.39,43.41"/><line class="cls-20" x1="68.17" y1="206.89" x2="109.87" y2="206.89"/><text class="cls-21" transform="translate(42.28 176.42)">PESANAN KOSONG</text><text class="cls-22" transform="translate(30.15 189.43)">Silahkan memilih pesanan terlebih dahulu </text><path class="cls-23" d="M78.1,23.9a7,7,0,0,1,.73-.81A7.5,7.5,0,0,1,82,21.28a1.67,1.67,0,0,1,2.13,1.78,1.63,1.63,0,0,1-1.19,1.47,4.41,4.41,0,0,0-1.71,7.39,4.31,4.31,0,0,0,4.34,1,1.7,1.7,0,1,1,.94,3.26,7.66,7.66,0,0,1-2.9.3,7.87,7.87,0,0,1-1.51-.28l-.13,0a1.72,1.72,0,0,1-3.21,1c-.18.2-.35.41-.54.6a7.71,7.71,0,0,1-4.35,2.27,7.59,7.59,0,0,1-3.51-.22A8.26,8.26,0,0,1,68.49,39a7.82,7.82,0,0,1-3.59-5.19,7.42,7.42,0,0,1-.14-1.56,7.64,7.64,0,0,1,.52-2.72,8.42,8.42,0,0,1,.91-1.7,7.65,7.65,0,0,1,2.61-2.32,7.16,7.16,0,0,1,1.48-.63,1.69,1.69,0,0,1,1,3.22,4.63,4.63,0,0,0-1.3.64,4.28,4.28,0,0,0-1.81,3A4.4,4.4,0,0,0,76,35.13,4.31,4.31,0,0,0,77,32a5.65,5.65,0,0,0-.3-1.34l-1.44-4.61A8.15,8.15,0,0,1,74.91,25,1.69,1.69,0,0,1,78,23.79S78,23.87,78.1,23.9Z"/><path class="cls-24" d="M89.09,30.43a.91.91,0,0,1-.24.62,1.88,1.88,0,0,1-1.15.7.84.84,0,0,1-.94-1.13,1.25,1.25,0,0,1,.31-.47,1.84,1.84,0,0,1,1-.56A.84.84,0,0,1,89.09,30.43Z"/><path class="cls-24" d="M85.81,26.12A.84.84,0,0,1,85,25a1.8,1.8,0,0,1,1.51-1,.85.85,0,0,1,.77,1.13A1.8,1.8,0,0,1,85.81,26.12Z"/><path class="cls-8" d="M65.27,32.39a6.78,6.78,0,0,1,.48-2.6A7.21,7.21,0,0,1,70,25.53a2.46,2.46,0,0,1,.72-.18,1.19,1.19,0,0,1,.37,2.32,4.89,4.89,0,0,0-2.27,1.48A4.83,4.83,0,0,0,67.67,32a4.92,4.92,0,0,0,5,5.28,4.92,4.92,0,0,0,4.78-5,5.66,5.66,0,0,0-.25-1.47,7.24,7.24,0,0,1,.25-4.86,7.38,7.38,0,0,1,1.14-1.88A7.21,7.21,0,0,1,82,21.79a1.18,1.18,0,0,1,1,.08,1.14,1.14,0,0,1,.6,1.16,1.1,1.1,0,0,1-.8,1,5.25,5.25,0,0,0-1.4.7,4.89,4.89,0,0,0-1.83,5.51,7,7,0,0,1,.27,3,7.29,7.29,0,0,1-6.58,6.42,7.1,7.1,0,0,1-3.1-.39A7.27,7.27,0,0,1,68,38.06a7.24,7.24,0,0,1-2.7-5C65.29,32.86,65.28,32.62,65.27,32.39Z"/><path class="cls-25" d="M80.38,31.82c.16.18.32.36.5.53a5,5,0,0,0,2.91,1.29,5.16,5.16,0,0,0,1.91-.21,1.19,1.19,0,0,1,.72,2.26,7.26,7.26,0,0,1-6.1-.8c-.1-.06-.25-.1-.28-.21s0-.22.07-.33a8,8,0,0,0,.25-2.4S80.34,31.87,80.38,31.82Z"/><path class="cls-1" d="M76.41,28.16c-.08-.24-.16-.49-.23-.73-.25-.78-.49-1.57-.73-2.35a1.18,1.18,0,0,1,2.23-.78.25.25,0,0,1-.05.26A7.46,7.46,0,0,0,77,25.68a8.23,8.23,0,0,0-.6,2.39.22.22,0,0,1,0,.08Z"/><path class="cls-1" d="M81.4,36.36a1.2,1.2,0,0,1-1,1.18,1.18,1.18,0,0,1-1.33-.7.25.25,0,0,1,0-.26,6,6,0,0,0,.61-1.15l.07-.15c0-.07.06-.07.11,0l.08.06a6.61,6.61,0,0,0,1.21.63.23.23,0,0,1,.16.18C81.38,36.2,81.39,36.29,81.4,36.36Z"/><path class="cls-26" d="M88.81,30.15a1.14,1.14,0,0,1-.84.59,1.9,1.9,0,0,0-1,.47.42.42,0,0,1,.13-.23,1.28,1.28,0,0,1,.68-.38A2,2,0,0,0,88.81,30.15Z"/><path class="cls-27" d="M85.23,25.57A1.17,1.17,0,0,1,86,25l.32-.07a1.56,1.56,0,0,0,.72-.42c0,.08,0,.11-.06.15a1.33,1.33,0,0,1-.87.49,2,2,0,0,0-.74.32Z"/></g></g></svg>