<svg xmlns="http://www.w3.org/2000/svg" viewBox="0 0 1417.32 1417.32"><defs><style>.cls-1{fill:#fff;}.cls-2{fill:#101010;}.cls-3{fill:#f6d00e;}.cls-4{fill:#e7c325;}.cls-5{fill:#171717;}.cls-6{fill:#231f20;}.cls-7{fill:#342212;}.cls-8{fill:#956c44;}.cls-9{fill:#010100;}.cls-10{fill:#956c43;}.cls-11{fill:#595757;}.cls-12{fill:#5a5958;}.cls-13{fill:#565554;}.cls-14{fill:#514f4f;}.cls-15{fill:#636160;}.cls-16{fill:#565454;}.cls-17{fill:#5f5d5d;}.cls-18{fill:#4b4a49;}.cls-19{fill:#3d3c3c;}.cls-20{fill:#656362;}.cls-21{fill:#4c4b4a;}.cls-22{fill:#5d5b5b;}.cls-23{fill:#565453;}.cls-24{fill:#4e4d4c;}.cls-25{fill:#636161;}.cls-26{fill:#4f4d4d;}.cls-27{fill:#393838;}.cls-28{fill:#3d3d3d;}.cls-29{fill:#383838;}.cls-30{fill:#5a5858;}.cls-31{fill:#575555;}.cls-32{fill:#787676;}.cls-33{fill:#666464;}.cls-34{fill:#504f4e;}.cls-35{fill:#706d6d;}.cls-36{fill:#5e5c5b;}.cls-37{fill:#5f5e5d;}.cls-38{fill:#5d5b5a;}.cls-39{fill:#626060;}.cls-40{fill:#3b3a3a;}.cls-41{fill:#3c3b3b;}.cls-42{fill:#5b5958;}.cls-43{fill:#494847;}.cls-44{fill:#424241;}.cls-45{fill:#424141;}.cls-46{fill:#383837;}.cls-47{fill:#656262;}.cls-48{fill:#4a4948;}.cls-49{fill:#3c3c3b;}.cls-50{fill:#3c3c3c;}.cls-51{fill:#3b3b3a;}.cls-52{fill:#605e5e;}.cls-53{fill:#2c2c2c;}.cls-54{fill:#2d2d2d;}.cls-55{fill:#2c2b2b;}.cls-56{fill:#2b2b2b;}.cls-57{fill:#2f2f2f;}.cls-58{fill:#303030;}.cls-59{fill:#373636;}.cls-60{fill:#313232;}.cls-61{fill:#3b3b3b;}.cls-62{fill:#3a3939;}.cls-63{fill:#343434;}.cls-64{fill:#353535;}.cls-65{fill:#656363;}.cls-66{fill:#2c2d2c;}.cls-67{fill:#2e2e2d;}.cls-68{fill:#2b2c2c;}.cls-69{fill:#373737;}.cls-70{fill:#2d2e2d;}.cls-71{fill:#2b2c2b;}.cls-72{fill:#363636;}.cls-73{fill:#353434;}.cls-74{fill:#363535;}.cls-75{fill:#4b4949;}.cls-76{fill:#454444;}.cls-77{fill:#464544;}.cls-78{fill:#424140;}.cls-79{fill:#424e43;}.cls-80{fill:#464545;}.cls-81{fill:#3d3b3b;}.cls-82{fill:#373635;}.cls-83{fill:#2a4030;}.cls-84{fill:#3f4a40;}.cls-85{fill:#353433;}.cls-86{fill:#3d3c3b;}.cls-87{fill:#41403f;}.cls-88{fill:#39523f;}.cls-89{fill:#333332;}.cls-90{fill:#383737;}.cls-91{fill:#3f3e3e;}.cls-92{fill:#36483a;}.cls-93{fill:#324035;}.cls-94{fill:#394c3d;}.cls-95{fill:#354138;}.cls-96{fill:#444342;}.cls-97{fill:#3b4a3d;}.cls-98{fill:#282828;}.cls-99{fill:#d6d5d4;}.cls-100{fill:#3a4e3e;}.cls-101{fill:#272727;}.cls-102{fill:#38453b;}.cls-103{fill:#706e6d;}.cls-104{fill:#c1bfbf;}.cls-105{fill:#d1cfcf;}.cls-106{fill:#36493a;}.cls-107{fill:#6c6a6a;}.cls-108{fill:#555353;}.cls-109{fill:#3a493d;}.cls-110{fill:#3c4e3f;}.cls-111{fill:#3d443e;}.cls-112{fill:#314936;}.cls-113{fill:#cdcbca;}.cls-114{fill:#455747;}.cls-115{fill:#9e9b9b;}.cls-116{fill:#6f6d6d;}.cls-117{fill:#475148;}.cls-118{fill:#e5e3e3;}.cls-119{fill:#504e4e;}.cls-120{fill:#4b4a4a;}.cls-121{fill:#233829;}.cls-122{fill:#505c50;}.cls-123{fill:#8d8a8a;}.cls-124{fill:#334637;}.cls-125{fill:#485248;}.cls-126{fill:#666363;}.cls-127{fill:#484746;}.cls-128{fill:#3e4a40;}.cls-129{fill:#3a523f;}.cls-130{fill:#525050;}.cls-131{fill:#8e8b8b;}.cls-132{fill:#eeeded;}.cls-133{fill:#4d4c4c;}.cls-134{fill:#414741;}.cls-135{fill:#455146;}.cls-136{fill:#696767;}.cls-137{fill:#333;}.cls-138{fill:#6d6a6a;}.cls-139{fill:#646262;}.cls-140{fill:#535252;}.cls-141{fill:#474646;}.cls-142{fill:#62605f;}.cls-143{fill:#777474;}.cls-144{fill:#8a8787;}.cls-145{fill:#404741;}.cls-146{fill:#1b1c1c;}.cls-147{fill:#424942;}.cls-148{fill:#233b2a;}.cls-149{fill:#5c5a59;}.cls-150{fill:#726f6f;}.cls-151{fill:#535251;}.cls-152{fill:#747271;}.cls-153{fill:#686666;}.cls-154{fill:#38513e;}.cls-155{fill:#28322b;}.cls-156{fill:#878484;}.cls-157{fill:#434242;}.cls-158{fill:#404d41;}.cls-159{fill:#243328;}.cls-160{fill:#4c594c;}.cls-161{fill:#444242;}.cls-162{fill:#706e6e;}.cls-163{fill:#858383;}.cls-164{fill:#243429;}.cls-165{fill:#6e6c6b;}.cls-166{fill:#223427;}.cls-167{fill:#4e584e;}.cls-168{fill:#4c5a4d;}.cls-169{fill:#939090;}.cls-170{fill:#252626;}.cls-171{fill:#585756;}.cls-172{fill:#7e7b7a;}.cls-173{fill:#203125;}.cls-174{fill:#323131;}.cls-175{fill:#6b6969;}.cls-176{fill:#535150;}.cls-177{fill:#605e5d;}.cls-178{fill:#4d4c4b;}.cls-179{fill:#6f6c6c;}.cls-180{fill:#273a2c;}.cls-181{fill:#4d4d4c;}.cls-182{fill:#f8f8f8;}.cls-183{fill:#d0cece;}.cls-184{fill:#009448;}.cls-185{fill:#d1cfce;}.cls-186{fill:#e9e8e7;}.cls-187{fill:#c7c5c5;}.cls-188{fill:#f1f0f0;}.cls-189{fill:#1b2b20;}.cls-190{fill:#e0dede;}.cls-191{fill:#1b281f;}.cls-192{fill:#151616;}.cls-193{fill:#b3d5bb;}.cls-194{fill:#bddac2;}.cls-195{fill:#1a2b20;}.cls-196{fill:#ccc9c9;}.cls-197{fill:#f2f8f3;}.cls-198{fill:#eff6f0;}.cls-199{fill:#f1f7f2;}.cls-200{fill:#ecf4ee;}.cls-201{fill:#d4e7d8;}.cls-202{fill:#d0e4d4;}.cls-203{fill:#e6f1e8;}.cls-204{fill:#dfece1;}.cls-205{fill:#2c984f;}.cls-206{fill:#d9eadc;}.cls-207{fill:#2e9850;}.cls-208{fill:#d7e8db;}.cls-209{fill:#d6e7d9;}.cls-210{fill:#bedac4;}.cls-211{fill:#cce1cf;}.cls-212{fill:#d1e5d6;}.cls-213{fill:#429d59;}.cls-214{fill:#379a53;}.cls-215{fill:#1e944a;}.cls-216{fill:#d6e8d9;}.cls-217{fill:#2e9752;}.cls-218{fill:#e2eee4;}.cls-219{fill:#2d9750;}.cls-220{fill:#3c9c57;}.cls-221{fill:#c2dac5;}.cls-222{fill:#c5e0cc;}.cls-223{fill:#49a060;}.cls-224{fill:#cde3d2;}.cls-225{fill:#a3cdad;}.cls-226{fill:#3a9a57;}.cls-227{fill:#d5e8da;}.cls-228{fill:#cfe4d4;}.cls-229{fill:#abd1b5;}.cls-230{fill:#c9e2cf;}.cls-231{fill:#add2b6;}.cls-232{fill:#b2d4b9;}.cls-233{fill:#82bc91;}.cls-234{fill:#3d9a57;}.cls-235{fill:#439d5b;}.cls-236{fill:#cae1ce;}.cls-237{fill:#c0dbc4;}.cls-238{fill:#acd0b3;}.cls-239{fill:#bfdac4;}.cls-240{fill:#c1dcc7;}.cls-241{fill:#b9dac2;}.cls-242{fill:#70b17f;}.cls-243{fill:#a8cfb1;}.cls-244{fill:#cae2d1;}.cls-245{fill:#a2cbab;}.cls-246{fill:#a8d0b3;}.cls-247{fill:#b4d8bf;}.cls-248{fill:#c0e0cc;}.cls-249{fill:#badac2;}.cls-250{fill:#bbd9c2;}.cls-251{fill:#5ba76d;}.cls-252{fill:#8abf97;}.cls-253{fill:#9ac8a5;}.cls-254{fill:#bcdcc6;}.cls-255{fill:#bcd9c2;}.cls-256{fill:#abd0b3;}.cls-257{fill:#b3d6bc;}.cls-258{fill:#479d5e;}.cls-259{fill:#b4d4bb;}.cls-260{fill:#eff7f1;}.cls-261{fill:#c7e1ce;}.cls-262{fill:#86be95;}.cls-263{fill:#57a36a;}.cls-264{fill:#7fba8e;}.cls-265{fill:#86be93;}.cls-266{fill:#92c49f;}.cls-267{fill:#b7d6bd;}.cls-268{fill:#7db98c;}.cls-269{fill:#7ebd91;}.cls-270{fill:#9fcbab;}.cls-271{fill:#8bc298;}.cls-272{fill:#badbc4;}.cls-273{fill:#bddcc6;}.cls-274{fill:#93c49f;}.cls-275{fill:#9ac7a5;}.cls-276{fill:#acd2b6;}.cls-277{fill:#78b88a;}.cls-278{fill:#92c5a1;}.cls-279{fill:#6db482;}.cls-280{fill:#6fb382;}.cls-281{fill:#cbe6d5;}.cls-282{fill:#69ab77;}.cls-283{fill:#bbdcc5;}.cls-284{fill:#b7d8c0;}.cls-285{fill:#a4ceb0;}.cls-286{fill:#c5e1cd;}.cls-287{fill:#c9e3d1;}.cls-288{fill:#3b9855;}.cls-289{fill:#118c45;}.cls-290{fill:#3f9a58;}.cls-291{fill:#449e5b;}.cls-292{fill:#1e8f4a;}.cls-293{fill:#56a56b;}.cls-294{fill:#c5e0cd;}.cls-295{fill:#52a368;}.cls-296{fill:#50a065;}.cls-297{fill:#fcfefd;}.cls-298{fill:#eaf5ef;}</style></defs><title>logo_kedanxhdpi</title><g id="Layer_2" data-name="Layer 2"><path class="cls-1" d="M830.26,899.17v0c.48-.69.93-1.36,1.39-2.05C831.2,897.83,830.73,898.5,830.26,899.17Z"/><path class="cls-2" d="M1156.58,898.06h-.47C1019.31,897.81,908,786.31,908,649.51S1019.31,401.21,1156.08,401h.59A95.47,95.47,0,0,0,1158.6,210c-1.63-.06-3.24,0-4.87,0a437.13,437.13,0,0,0-247.28,78A95.52,95.52,0,0,0,812.54,210a95.56,95.56,0,0,0-95.46,95.46v344c0,137.06-111.51,248.55-248.58,248.55S220,786.57,220,649.51,331.45,401,468.5,401A95.47,95.47,0,0,0,471,210c-1.63,0-3.22,0-4.85,0C349.29,210.64,239.51,256.6,157,339.46S29,532.49,29,649.51C29,766.9,74.71,877.29,157.73,960.3S351.11,1089,468.5,1089a437.52,437.52,0,0,0,250.17-78.11,95.47,95.47,0,0,0,187.76,0,437.36,437.36,0,0,0,247.3,78.08h2.35c.85,0,1.68,0,2.46,0a95.46,95.46,0,0,0,93-95.45C1251.56,941.21,1209,898.39,1156.58,898.06ZM745.72,305.47a66.83,66.83,0,0,1,133.66,0v3c-3.9,3.16-7.72,6.39-11.5,9.68-.7.6-1.4,1.22-2.09,1.83-1.28,1.12-2.55,2.25-3.81,3.41-.42.36-.82.73-1.23,1.12q-2,1.8-4,3.65c-.7.65-1.39,1.29-2.09,2-1.06,1-2.1,2-3.14,3s-2.14,2.07-3.22,3.15c-.4.37-.8.77-1.2,1.17-1.53,1.5-3,3-4.56,4.57l-.25.29q-2.19,2.21-4.33,4.46c-.43.45-.87.92-1.3,1.39-1,1.06-2,2.14-3,3.23s-2.09,2.27-3.11,3.42c-.52.54-1,1.09-1.5,1.64-1,1.17-2.08,2.33-3.08,3.5-.78.86-1.52,1.72-2.27,2.59s-1.27,1.48-1.89,2.22c-1,1.16-2,2.34-3,3.52-.51.62-1,1.24-1.51,1.85-1.05,1.23-2.05,2.48-3.05,3.73q-.87,1.05-1.68,2.1c-1,1.23-2,2.48-2.94,3.72-1.41,1.81-2.8,3.61-4.18,5.45-1.53,2-3,4.05-4.52,6.1-1.72,2.36-3.41,4.72-5.07,7.11q-1.51,2.18-3,4.36-2.24,3.29-4.41,6.61c-1.33,2-2.65,4.09-3.94,6.13q-3.79,6-7.39,12.12c-.06.11-.11.21-.19.33-1.11,1.89-2.2,3.79-3.29,5.71l-.82,1.45q-1.5,2.67-3,5.37l-.11.22c-1.14,2.07-2.25,4.18-3.34,6.27s-2.22,4.28-3.3,6.44S761,457.62,760,459.8c-.94,1.95-1.87,3.91-2.77,5.87l-.3.66q-1.33,2.87-2.59,5.74l-.7,1.61c-.82,1.83-1.61,3.68-2.38,5.53-.09.21-.17.41-.27.63-.89,2.11-1.75,4.23-2.61,6.37s-1.76,4.45-2.62,6.69ZM879.38,993.55a66.83,66.83,0,1,1-133.66,0v-3c.39-.32.79-.65,1.17-1,1.54-1.23,3.05-2.49,4.56-3.76.41-.36.83-.7,1.24-1.08,1.55-1.29,3.1-2.62,4.63-3.95l.7-.62c1.82-1.6,3.63-3.2,5.42-4.82q2.38-2.14,4.72-4.34c.55-.5,1.09-1,1.62-1.52,1.59-1.49,3.15-3,4.71-4.51q2.58-2.49,5.11-5c.15-.14.29-.28.43-.43q2.57-2.58,5.09-5.18a.28.28,0,0,0,.07-.09q2.63-2.73,5.2-5.5c1.73-1.86,3.44-3.72,5.11-5.6s3.37-3.76,5-5.68q2.25-2.6,4.48-5.24l1-1.16q1.8-2.16,3.57-4.33c.54-.64,1.06-1.3,1.57-1.95.27-.33.55-.67.8-1s.43-.51.63-.77l.69.84q1.38,1.74,2.78,3.44c.4.5.8,1,1.23,1.49s.93,1.15,1.42,1.72l1.43,1.72c.17.2.34.41.52.61.9,1.09,1.83,2.18,2.76,3.25.2.22.39.45.57.66.42.49.83,1,1.26,1.45l1.26,1.43,0,0c.76.89,1.54,1.78,2.36,2.67a1.8,1.8,0,0,0,.19.21c.34.4.7.8,1.07,1.21,1.07,1.2,2.16,2.4,3.29,3.59l.48.52c.4.45.83.91,1.26,1.37q1.71,1.85,3.48,3.68l.43.45,1.86,1.93c1.17,1.23,2.36,2.43,3.55,3.64l0,0,2.11,2.09q1.59,1.6,3.22,3.18c.49.49,1,1,1.49,1.45.93.9,1.86,1.79,2.79,2.66.47.44.93.9,1.41,1.33s.93.89,1.4,1.32c1.85,1.73,3.72,3.45,5.61,5.14s3.67,3.27,5.52,4.88l.2.18c1.19,1,2.37,2.06,3.58,3.06l.56.47c.45.4.91.8,1.38,1.18.91.77,1.81,1.52,2.71,2.26l2.88,2.38Z"/><path class="cls-3" d="M1222.91,993.55c0,35.93-29.2,65.91-65.15,66.82h-3.69c-92.27-.55-179.24-30.95-251.5-87.93-4.28-3.37-8.51-6.83-12.65-10.38-1-.86-2.06-1.74-3.07-2.64-.79-.68-1.6-1.37-2.38-2.09l-.28-.26c-.64-.54-1.28-1.1-1.91-1.69q-2.12-1.86-4.18-3.79s-.06,0-.08-.08l-.07-.07-.25-.25c-1.27-1.13-2.53-2.31-3.78-3.5-.38-.36-.77-.72-1.16-1.11a1.66,1.66,0,0,0-.14-.13c-1.33-1.24-2.63-2.53-3.94-3.82-.78-.75-1.53-1.49-2.29-2.27s-1.51-1.51-2.28-2.29c-1.53-1.52-3-3.07-4.5-4.62s-2.86-3-4.28-4.53l-.11-.13q-4.4-4.75-8.63-9.62c-1-1.09-1.93-2.2-2.84-3.31l-.26-.3c-.48-.52-.91-1-1.35-1.57-.14-.18-.3-.37-.44-.53-.83-1-1.63-1.93-2.42-2.91-.44-.52-.86-1-1.26-1.55-1-1.19-2-2.39-2.89-3.59-.53-.64-1-1.28-1.51-1.92a4.1,4.1,0,0,1-.34-.41c-.56-.7-1.1-1.39-1.63-2.09-.27-.35-.56-.7-.82-1s-.39-.49-.57-.74h0c.46-.67.94-1.35,1.41-2s.83-1.2,1.22-1.81l1.22-1.8c1.61-2.4,3.19-4.83,4.76-7.26s3.11-4.88,4.61-7.35q1.14-1.83,2.25-3.69c.73-1.24,1.48-2.47,2.22-3.73s1.45-2.49,2.15-3.73c1.45-2.5,2.86-5,4.23-7.52.53-.94,1-1.91,1.56-2.86.72-1.32,1.43-2.66,2.13-4s1.26-2.43,1.88-3.63c.79-1.52,1.57-3,2.34-4.58,1.56-3.14,3.07-6.27,4.56-9.45.63-1.35,1.25-2.69,1.87-4,.15-.3.28-.6.42-.91.53-1.19,1.08-2.41,1.61-3.61.22-.47.44-1,.64-1.45.52-1.19,1-2.37,1.54-3.56.22-.48.41-.95.61-1.43.5-1.12,1-2.25,1.42-3.38.6-1.45,1.19-2.88,1.76-4.33.45-1.1.89-2.22,1.33-3.33.81-2.07,1.6-4.14,2.38-6.24l.66-1.78c.79-2.14,1.58-4.31,2.33-6.49q2-5.67,3.83-11.37c.26-.81.52-1.6.75-2.4.66-2,1.28-4.08,1.88-6.14s1.2-4.12,1.79-6.18c.4-1.38.78-2.74,1.15-4.13s.69-2.55,1-3.85c.54-2.06,1.06-4.1,1.55-6.16a2,2,0,0,0,.13-.48c.51-2,1-4.1,1.46-6.15.06-.27.13-.56.2-.83A277.74,277.74,0,0,0,1156.08,926.7h.41A67,67,0,0,1,1222.91,993.55Z"/><path class="cls-4" d="M1222.91,305.48a67,67,0,0,1-66.33,66.83h-.52a277.23,277.23,0,0,0-276.67,277.2A407.54,407.54,0,0,1,801,891h0c-.16.25-.34.49-.52.73l0,0a412,412,0,0,1-77.85,80.7c-73,57.52-160.85,87.92-254,87.92C242,1060.38,57.64,876.07,57.64,649.51c0-225.46,183.4-409.75,408.83-410.85h3.76a66.84,66.84,0,0,1-1.73,133.65c-152.85,0-277.19,124.35-277.19,277.2S315.65,926.7,468.5,926.7,745.72,802.37,745.72,649.51A407.83,407.83,0,0,1,824.12,408a412.36,412.36,0,0,1,78.45-81.47c72.27-56.95,159.23-87.34,251.5-87.9h3.75C1193.71,239.58,1222.91,269.56,1222.91,305.48Z"/><path class="cls-1" d="M830.27,899.19h0c.18.25.37.49.57.73C830.63,899.69,830.44,899.43,830.27,899.19Z"/><path class="cls-5" d="M1391.27,797c6.11,31.67-15.4,51.48-36.44,61.56-12.31,5.9-25.13,10.24-38.77,11.7-25.55,2.75-47.14-3.33-60.48-27.48l-2.15-6.65a5,5,0,0,1,1.34-1.33c20.36-14,43-17.36,67.1-14.73,11.19,1.23,22.28,1.06,33.38-2.34a64.85,64.85,0,0,0,29.59-18.64C1386.41,797.34,1387.93,793.91,1391.27,797Z"/><path class="cls-5" d="M1254.33,835.81l-.9.29-1.07-3.33c-3.14-19.09,3.07-34.83,17.09-47.8a81.46,81.46,0,0,1,24.83-15.63c15.5-6.29,31.54-10.86,48.53-9.7,22.33,1.53,39,11.31,47.1,33.22-3.48,6.21-9.89,8.17-15.78,10.91-16.74,7.77-34.36,8.29-52.3,6.57-12-1.15-23.81-.86-35.54,3.2a62.17,62.17,0,0,0-25.22,15.92A66.28,66.28,0,0,1,1254.33,835.81Z"/><path class="cls-5" d="M1391.27,464.44c6.11,31.67-15.4,51.48-36.44,61.57-12.31,5.89-25.13,10.23-38.77,11.7-25.55,2.74-47.14-3.33-60.48-27.48l-2.15-6.66a5.1,5.1,0,0,1,1.34-1.32c20.36-14.05,43-17.37,67.1-14.73,11.19,1.23,22.28,1.06,33.38-2.35a64.85,64.85,0,0,0,29.59-18.64C1386.41,464.82,1387.93,461.39,1391.27,464.44Z"/><path class="cls-5" d="M1254.33,503.28l-.9.29-1.07-3.33c-3.14-19.09,3.07-34.82,17.09-47.79a81.68,81.68,0,0,1,24.83-15.64c15.5-6.28,31.54-10.86,48.53-9.7,22.33,1.53,39,11.31,47.1,33.23-3.48,6.21-9.89,8.17-15.78,10.9-16.74,7.77-34.36,8.29-52.3,6.58-12-1.15-23.81-.87-35.54,3.19a62.19,62.19,0,0,0-25.22,15.93A66.18,66.18,0,0,1,1254.33,503.28Z"/><path class="cls-6" d="M156.06,1127h30.22v67.14q0,18.51-9.69,30.14a39.74,39.74,0,0,1-14.19,10.67,41.78,41.78,0,0,1-17.65,4q-18,0-30.38-12.12A40,40,0,0,1,102,1197a40.55,40.55,0,0,1,12.28-29.49q12.28-12.45,29.09-12.44c1.77,0,4.47.16,8.08.48v33.29a12.06,12.06,0,0,0-7.44-2.91,10.86,10.86,0,0,0-8,3.44,11.43,11.43,0,0,0-3.35,8.28,10.81,10.81,0,0,0,3.47,8,11.59,11.59,0,0,0,8.33,3.35q11.63,0,11.63-16.08Z"/><path class="cls-6" d="M223.77,1168.56v-5.9a19.3,19.3,0,0,1-13.17-5.7,17.81,17.81,0,0,1-5.09-13,18.75,18.75,0,0,1,5.46-13.7,18.22,18.22,0,0,1,13.53-5.54,17.49,17.49,0,0,1,13.17,5.58,19.2,19.2,0,0,1,5.33,13.82,23.86,23.86,0,0,1-5.21,15.19A26.9,26.9,0,0,1,223.77,1168.56Z"/><path class="cls-6" d="M340.69,1183.35l34.34.88q-3.39,26.67-18.46,41.21T317.26,1240q-24.64,0-41.25-16.53t-16.6-41q0-24.64,16.92-41.45t41.74-16.81q24.4,0,40.72,16.48,11.31,11.4,16,31.76l-35.15,2.34q-5.89-18.1-22.38-18.1a22.73,22.73,0,0,0-17.33,7.27q-6.84,7.27-6.83,18.51,0,10.83,6.71,17.89a22.34,22.34,0,0,0,17,7.07q10.43,0,16.61-6.22T340.69,1183.35Z"/><path class="cls-6" d="M426.5,1155a39.91,39.91,0,0,1,29.37,12.33,41.77,41.77,0,0,1-.16,59.26,42.6,42.6,0,0,1-59.91,0,41.76,41.76,0,0,1,0-59.47Q408.23,1155,426.5,1155Zm-.8,29.82a11.05,11.05,0,0,0-8.25,3.51,12.52,12.52,0,0,0,0,17.18,11.35,11.35,0,0,0,16.49,0,12.52,12.52,0,0,0,0-17.18A11.13,11.13,0,0,0,425.7,1184.8Z"/><path class="cls-6" d="M524.43,1174.54v31.67H510.94v31H480.72V1168.8q0-11.55,4-19.71a41.28,41.28,0,0,1,15.23-17,38.75,38.75,0,0,1,21.29-6.59l3.23.08v31.68c-.7-.06-1.21-.08-1.53-.08q-5.74,0-8.85,3.79c-2.07,2.54-3.11,6.14-3.11,10.83v2.75Z"/><path class="cls-6" d="M581.4,1174.54v31.67H567.91v31H537.69V1168.8q0-11.55,3.95-19.71a41.23,41.23,0,0,1,15.24-17,38.75,38.75,0,0,1,21.29-6.59l3.23.08v31.68c-.7-.06-1.21-.08-1.54-.08q-5.73,0-8.84,3.79c-2.08,2.54-3.11,6.14-3.11,10.83v2.75Z"/><path class="cls-6" d="M673.84,1201.85H628a21.13,21.13,0,0,1,.41-14.3h15.35q-1.62-9-10.1-9a11,11,0,0,0-9.21,4.81q-3.57,4.8-3.56,12.32,0,7.83,3.43,12.68a10.56,10.56,0,0,0,9,4.85q4.53,0,8.73-4.52l17.21,20.68a42.29,42.29,0,0,1-26.74,9.46q-17.94,0-30.14-12T590.21,1197a40.44,40.44,0,0,1,12.32-29.9q12.32-12.19,30.26-12.2,17.54,0,29.45,11.92t11.92,29.37C674.16,1197.38,674.05,1199.26,673.84,1201.85Z"/><path class="cls-6" d="M765.54,1201.85H719.73a22.26,22.26,0,0,1-1.05-6.38,22.55,22.55,0,0,1,1.45-7.92h15.36q-1.62-9-10.1-9a11,11,0,0,0-9.21,4.81q-3.57,4.8-3.56,12.32,0,7.83,3.43,12.68a10.56,10.56,0,0,0,9,4.85q4.53,0,8.73-4.52L751,1229.4a42.29,42.29,0,0,1-26.74,9.46q-17.94,0-30.14-12T681.92,1197a40.44,40.44,0,0,1,12.32-29.9q12.32-12.19,30.26-12.2,17.54,0,29.45,11.92t11.92,29.37C765.87,1197.38,765.76,1199.26,765.54,1201.85Z"/><path class="cls-6" d="M854.51,1127v110.29H821.7V1127Zm62.94,0-29.09,50,28.93,60.28H880.44l-25-60.92L883.76,1127Z"/><path class="cls-6" d="M1005.36,1201.85H959.55a21.2,21.2,0,0,1,.4-14.3H975.3q-1.6-9-10.1-9a11,11,0,0,0-9.21,4.81q-3.56,4.8-3.55,12.32,0,7.83,3.43,12.68a10.54,10.54,0,0,0,9,4.85q4.53,0,8.73-4.52l17.21,20.68a42.3,42.3,0,0,1-26.75,9.46q-17.94,0-30.14-12T921.73,1197a40.45,40.45,0,0,1,12.33-29.9q12.32-12.19,30.26-12.2,17.52,0,29.45,11.92t11.92,29.37C1005.69,1197.38,1005.58,1199.26,1005.36,1201.85Z"/><path class="cls-6" d="M1067.5,1127h30.22v67.14q0,18.51-9.7,30.14a39.61,39.61,0,0,1-14.18,10.67,41.81,41.81,0,0,1-17.65,4q-18,0-30.38-12.12a40,40,0,0,1-12.37-29.74,40.59,40.59,0,0,1,12.28-29.49q12.29-12.45,29.09-12.44,2.67,0,8.08.48v33.29a12,12,0,0,0-7.43-2.91,10.84,10.84,0,0,0-8,3.44,11.39,11.39,0,0,0-3.35,8.28,10.78,10.78,0,0,0,3.47,8,11.59,11.59,0,0,0,8.32,3.35q11.64,0,11.64-16.08Z"/><path class="cls-6" d="M1158.4,1207v31.27a40,40,0,0,1-6.79.65q-18.18,0-30.3-12t-12.12-30a41.72,41.72,0,0,1,42-41.93q19.55,0,30.82,11.43t11.28,31.23v39.51h-30.22v-37.33q0-6.39-3.11-10.18a10.28,10.28,0,0,0-8.37-3.8,11.9,11.9,0,0,0-8.56,20,10.72,10.72,0,0,0,8,3.23A13.7,13.7,0,0,0,1158.4,1207Z"/><path class="cls-6" d="M1282.75,1237.24h-30.22v-45.49q0-6.95-5.73-7t-5.66,7v45.49h-30.22v-44.93q0-15.75,10.42-26.54a34.15,34.15,0,0,1,25.54-10.79q17.28,0,27.71,12.53,8.16,9.78,8.16,27.23Z"/><path class="cls-7" d="M1152.3,1049.78a54.43,54.43,0,1,1-1.53-108.85,52.86,52.86,0,0,1,38.72,15.52c10.71,10.45,16,23.32,16.43,38.26A54.45,54.45,0,0,1,1152.3,1049.78Z"/><path class="cls-8" d="M1099.15,995.89c.19-14.67,5.18-26.86,14.93-37.12,10.34-10.25,22.77-15.58,37.35-15.69a50.59,50.59,0,0,1,24.46,6,52.27,52.27,0,0,1,2.9,90.79,52.23,52.23,0,0,1-64.2-7.57A51.27,51.27,0,0,1,1099.15,995.89Z"/><path class="cls-7" d="M1152.45,962.4a32.92,32.92,0,1,1-33.87,33.75C1118.14,977.2,1133.28,962.38,1152.45,962.4Z"/><path d="M1124.1,1025.81c1.62.11,3.18.59,4.81.69a5.42,5.42,0,0,1,.79.13,4.22,4.22,0,0,0,1.12.06c.63,0,.84-.45.54-1a2.55,2.55,0,0,0-.28-.39c-.08-.11-.26-.2-.1-.36s.29,0,.38.13c.32.34.64.68.93,1,.5.62,1.1,1.13,1.6,1.74a.47.47,0,0,0,.2.17c1.51.54,3,1.24,4.43,1.89l4.71,2.09c.39.17.44.25.27.64-.38.85-.77,1.69-1.16,2.54a1.71,1.71,0,0,1-.13.23.18.18,0,0,1-.19.08.17.17,0,0,1-.15-.19,2.52,2.52,0,0,1,.05-.37,3.87,3.87,0,0,0,0-1.59,2.76,2.76,0,0,0-1.27-1.61,16.8,16.8,0,0,0-2.19-1c-.23-.1-.31,0-.39.2-.23.55-.45,1.09-.7,1.63-.33.73-.68,1.46-1,2.19-.2.41-.18.43.25.61a1.89,1.89,0,0,0,2.13-.42,7,7,0,0,0,.88-1.08c.07-.11.12-.3.31-.17s.1.24,0,.38c-.32.7-.61,1.41-1,2.1-.45.91-.79,1.88-1.24,2.79a5.4,5.4,0,0,1-.23.49c0,.1-.12.18-.25.14s-.15-.18-.12-.31a2.58,2.58,0,0,1,.08-.26,4.41,4.41,0,0,0,.12-1.49,1.91,1.91,0,0,0-1.29-1.63c-.17-.08-.22,0-.27.17-.18.39-.35.78-.54,1.17-.39.8-.71,1.64-1,2.47s-.17,1,.55,1.34c.53.21,1,.49,1.59.65a3.65,3.65,0,0,0,2.17,0,4.28,4.28,0,0,0,1.55-.94c.18-.16.35-.35.53-.53s.2-.15.32,0,.06.19,0,.28l-.36.6c-.47.74-1,1.46-1.39,2.23-.19.35-.22.35-.59.19-1.38-.61-2.74-1.24-4.12-1.83-1.19-.5-2.36-1-3.52-1.58-.51-.23-1-.42-1.53-.66-.1,0-.26-.09-.19-.27s.19-.13.32-.07a4,4,0,0,0,.45.16.91.91,0,0,0,1.25-.49c.19-.35.36-.71.52-1.06.68-1.52,1.38-3,2-4.57.42-1,.88-2,1.36-3,.34-.7,0-1.13-.5-1.5-.06,0-.15-.1-.19-.08-.39.18-.57-.17-.82-.32a2.42,2.42,0,0,0-1-.35c-1.24-.13-2.46-.41-3.7-.59-.69-.1-1.38-.19-2.06-.3-.21,0-.3,0-.33.23-.16,1.09-.41,2.17-.53,3.28-.08.74-.23,1.48-.37,2.22a13.46,13.46,0,0,0-.28,2.76,2.3,2.3,0,0,0,.34,1.28.69.69,0,0,1,.1.19.2.2,0,0,1-.09.18.12.12,0,0,1-.19,0,2.39,2.39,0,0,1-.22-.23c-1-1-1.92-2.07-2.85-3.14-.31-.36-.67-.7-1-1-.08-.08-.21-.17-.1-.32s.26-.07.38,0l.13.09c.49.33.8.22.92-.35.19-.91.37-1.82.53-2.74s.25-1.77.39-2.65c0-.2,0-.24-.21-.27a.77.77,0,0,0-.71.3c-.58.61-1.23,1.15-1.85,1.72-.21.19-.44.37-.64.57a1.05,1.05,0,0,0-.15,1.57c.09.13.4.26.12.47s-.29-.11-.41-.21a22.62,22.62,0,0,1-1.56-1.69c-.69-.73-1.36-1.48-2-2.22a2.17,2.17,0,0,1-.23-.3c0-.09,0-.17.08-.23a.14.14,0,0,1,.19,0c.16.15.3.31.46.45a.88.88,0,0,0,1.3,0c.42-.32.81-.66,1.19-1,1.3-1.2,2.59-2.42,3.89-3.63.64-.59,1.28-1.19,2-1.75a1.06,1.06,0,0,0,.09-1.64c-.08-.1-.17-.19-.25-.28s-.11-.19,0-.28.19-.06.28,0c.31.32.63.63.92,1,.92,1,1.86,2.08,2.81,3.1.1.11.37.21.18.43s-.3,0-.43-.13l-.14-.1c-.49-.35-.63-.35-1.15,0a9,9,0,0,0-1,.79l-2.45,2.25Z"/><path d="M1146.85,1032.8c1.27-.06,2.54.08,3.81.14a7.25,7.25,0,0,1,3.06.67,5.36,5.36,0,0,1,2.9,3.67,7,7,0,0,1-.48,5,5.26,5.26,0,0,1-3.31,2.7,10.31,10.31,0,0,1-3.17.37c-.63,0-1.26,0-1.88,0s-1.36-.1-2-.09a6.22,6.22,0,0,1-1.22,0c-.13,0-.28,0-.27-.19s.17-.15.29-.16c1.23-.08,1.35-.22,1.43-1.42.1-1.36.09-2.72.09-4.08s.15-2.61.12-3.92c0-.32,0-.64,0-1,.06-.85-.4-1.22-1.22-1.32-.12,0-.25,0-.37,0s-.11-.08-.11-.16a.13.13,0,0,1,.13-.14,2.3,2.3,0,0,1,.37,0Z"/><path d="M1181.14,1026.36c-.47-.46-.82-.87-1.22-1.21-.78-.66-1.47-1.41-2.2-2.13a9.28,9.28,0,0,0-1-.86,1.21,1.21,0,0,0-1.63,0l-.33.27a.16.16,0,0,1-.24,0,.17.17,0,0,1,0-.24l.22-.24c.73-.76,1.52-1.46,2.2-2.27.1-.13.22-.41.45-.2s0,.32-.1.46a1.3,1.3,0,0,0,.09,1.71,6.75,6.75,0,0,0,.53.54c1.51,1.47,3,3,4.54,4.42.82.77,1.62,1.56,2.42,2.35a2.5,2.5,0,0,1,.23.23c.06.06.14.13.1.23a.24.24,0,0,1-.25.16h-.43l-3.15-.31c-1.44-.14-2.88-.21-4.32-.4-.56-.07-1.14,0-1.71-.11-1.08-.13-2.16-.22-3.25-.33l-.11,0c0,.2.17.27.28.38l5.36,5.18a1.48,1.48,0,0,0,2.27,0c.1-.09.18-.26.35-.1s0,.28-.11.38c-.43.45-.88.89-1.31,1.34l-1.33,1.41c-.09.09-.17.19-.31.06s-.06-.22,0-.32l.19-.26a1.22,1.22,0,0,0,.07-1.54,5.41,5.41,0,0,0-1-1.14c-1.6-1.51-3.17-3-4.74-4.6-.2-.2-.41-.4-.63-.58a1.17,1.17,0,0,0-.79-.38,2,2,0,0,0-1.33.28l-.13.1c-.09.1-.19.17-.31,0s0-.23,0-.32c.36-.34.68-.73,1-1.09.53-.57,1.09-1.09,1.62-1.65a.65.65,0,0,1,.62-.23c1.77.26,3.55.3,5.32.54C1178.39,1026.12,1179.71,1026.13,1181.14,1026.36Z"/><path d="M1124,969.64a6.65,6.65,0,0,1-.93,2.77c-.61,1.06-1.38,2-2,3l-.75,1.11-.18.26c-.08.09-.16.15-.28.06s0-.15,0-.23c.54-1,.46-1.24-.55-1.79-.53-.29-1-.63-1.56-1-1.32-.82-2.68-1.57-4-2.41a12.33,12.33,0,0,0-1.12-.63,1,1,0,0,0-1.29.26,2.48,2.48,0,0,0-.19.26c0,.08-.07.18-.19.13a.17.17,0,0,1-.09-.26,2.54,2.54,0,0,1,.16-.28c.89-1.27,1.78-2.55,2.68-3.82a6.74,6.74,0,0,1,1.61-1.63,5,5,0,0,1,3.4-.89,6.5,6.5,0,0,1,3.9,1.83,4.07,4.07,0,0,1,1.18,1.94A3.39,3.39,0,0,1,1124,969.64Z"/><path d="M1150.38,954.15c.09,2.15-1.88,4.16-3.92,4.61a9.94,9.94,0,0,1-2.54.32,5.42,5.42,0,0,1-5-3.93,5,5,0,0,1,1.25-5.09,5.51,5.51,0,0,1,3.13-1.52,13.12,13.12,0,0,1,2-.18,4.48,4.48,0,0,1,2.16.55C1149.38,949.9,1150.34,951.52,1150.38,954.15Z"/><path d="M1163.14,1041.29a4.34,4.34,0,0,0,.1,1,.91.91,0,0,0,1.19.7c.19,0,.37-.12.56-.17s.17,0,.21.12a.15.15,0,0,1-.07.22c-.15.07-.29.15-.44.21l-2.83,1.14a1.12,1.12,0,0,1-.31.1.2.2,0,0,1-.16-.31l.07-.07a2.7,2.7,0,0,0,.93-2.3c0-.57,0-1.15,0-1.72,0-1.29.17-2.57.16-3.86,0-.69,0-1.38,0-2.08,0-1.16.17-2.32.11-3.48,0-.12,0-.28.11-.32s.19.08.27.15c.88.79,1.71,1.63,2.56,2.45l5.56,5.29a10.11,10.11,0,0,0,.88.71,1.42,1.42,0,0,0,1.11.3c.13,0,.31-.07.36.12s-.14.25-.29.31l-3.92,1.6c-.35.14-.69.3-1,.45-.1,0-.2.09-.27,0s0-.2.12-.25.42-.21.61-.34a.58.58,0,0,0,.15-.93,4.93,4.93,0,0,0-.59-.62c-.3-.31-.61-.61-.9-.92s-.3-.26-.56-.13c-1.12.55-2.29,1-3.45,1.46a.37.37,0,0,0-.28.4C1163.15,1040.71,1163.14,1040.94,1163.14,1041.29Z"/><path d="M1183.34,961c-.61.72-1.26,1.41-1.94,2.07-.07.08-.16.16-.27.08s-.07-.22,0-.32a6.08,6.08,0,0,0,.45-1,1.63,1.63,0,0,0-.15-1.35,7.46,7.46,0,0,0-2-2c-.14-.1-.23,0-.32.06l-.76.76c-.59.62-1.23,1.2-1.77,1.87-.22.27-.22.3.06.48a1.82,1.82,0,0,0,2.07.08l.81-.52c.12-.07.26-.2.38,0s-.06.22-.14.31l-2.56,2.67-.85.9c-.08.08-.16.17-.28.08s-.09-.21,0-.32a4.5,4.5,0,0,0,.62-1.31A1.45,1.45,0,0,0,1176,962c-.15-.11-.23,0-.32.08-.35.36-.73.69-1,1.08s-.86.91-1.27,1.38-.4.66,0,1a9.2,9.2,0,0,0,1.35,1.07,3.47,3.47,0,0,0,3.48.11c.15-.06.29-.14.43-.21a.19.19,0,0,1,.24.06c.08.1,0,.16-.07.22l-1,.82-1.19.92c-.32.24-.32.24-.63,0-1-.78-2-1.67-3-2.46s-2.19-1.9-3.36-2.75c-.13-.1-.25-.21-.37-.32a.13.13,0,0,1,0-.19.15.15,0,0,1,.23,0l.29.23a1,1,0,0,0,1.41-.1c.89-.85,1.72-1.77,2.57-2.67l3-3.1a2.18,2.18,0,0,0,.25-.28.53.53,0,0,0,0-.73,2.13,2.13,0,0,0-.43-.47c-.11-.07-.21-.17-.08-.31s.2,0,.28,0c.39.31.79.62,1.17.94,1.67,1.43,3.37,2.83,5.08,4.21A1.22,1.22,0,0,1,1183.34,961Z"/><path d="M1191.08,971.47l-1.2.67-1.08.6-.34.17a.2.2,0,0,1-.28-.06c-.06-.1,0-.17.07-.23s.36-.35.52-.54a2.06,2.06,0,0,0,.27-2.58c-.26-.51-.6-1-.89-1.47-.11-.19-.23-.24-.43-.13l-3.3,1.81c-.21.11-.22.24-.1.42a1.61,1.61,0,0,0,1.33.79,3.21,3.21,0,0,0,1.37-.22l.3-.11c.11,0,.23,0,.27.1s0,.16-.12.21c-.3.18-.61.37-.92.54l-3.44,1.88-.24.12a.16.16,0,0,1-.19-.07.15.15,0,0,1,0-.23l.26-.19a3.26,3.26,0,0,0,.85-1,1.43,1.43,0,0,0-.14-1.61c-.09-.16-.21-.11-.32,0l-.87.53c-.75.43-1.5.84-2.24,1.28a.58.58,0,0,0-.26.87,5.77,5.77,0,0,0,1.53,2,2.67,2.67,0,0,0,1.78.6,6,6,0,0,0,1.34-.09l.1,0c.1,0,.19,0,.22.12s0,.16-.14.2c-.37.13-.73.27-1.1.42-.54.2-1.07.4-1.6.62-.29.13-.44.05-.6-.21-.61-1-1.21-2-1.86-3-.87-1.29-1.67-2.63-2.52-3.93l-.09-.14c0-.1-.16-.22,0-.32s.19,0,.26.12l0,0c.6.78.8.85,1.66.39,1.51-.8,3-1.64,4.52-2.47.77-.42,1.53-.86,2.32-1.25s.88-.68.45-1.52l-.09-.14a.16.16,0,0,1,0-.24c.11-.07.19,0,.26.09l.2.32c.93,1.44,1.87,2.88,2.79,4.33C1190,969.74,1190.54,970.6,1191.08,971.47Z"/><path d="M1168.26,956.4a2.39,2.39,0,0,0,1.9-1c.1-.12.16-.41.37-.28s0,.35-.08.5c-.63,1.25-1.25,2.5-1.84,3.76a2.77,2.77,0,0,1-.22.37.16.16,0,0,1-.2,0,.15.15,0,0,1-.07-.18,5.36,5.36,0,0,0,.21-.88,2,2,0,0,0-1.36-2.12c-.24-.07-.33.07-.41.23-.35.69-.7,1.38-1.06,2a6.75,6.75,0,0,0-.44,1,.78.78,0,0,0,.4,1.08l.43.22c.07,0,.13.09.1.17a.15.15,0,0,1-.21.11l-.25-.09-4.47-1.94c-.13-.06-.39-.06-.32-.27s.3-.07.45,0c.81.3,1.15.2,1.52-.57.72-1.51,1.55-3,2.22-4.52.24-.54.54-1,.81-1.58.11-.2.21-.41.33-.61.37-.63.25-1.1-.5-1.47-.12-.06-.39-.06-.3-.28s.3-.05.44,0c1.77.75,3.55,1.5,5.32,2.27.81.34,1.61.7,2.41,1,.23.1.3.21.17.45-.38.69-.74,1.39-1.1,2.09-.06.11-.12.24-.28.18s-.09-.21-.06-.32a.76.76,0,0,1,0-.16,2,2,0,0,0-.9-2.37,15.12,15.12,0,0,0-2.23-1c-.19-.09-.3,0-.37.17s-.24.55-.38.82c-.39.79-.79,1.57-1.18,2.35-.18.36-.17.37.2.48A3.22,3.22,0,0,0,1168.26,956.4Z"/><path d="M1157.37,953.28a1.85,1.85,0,0,0,1.79-1.06,5.18,5.18,0,0,0,.3-.63.19.19,0,0,1,.26-.12c.1,0,.08.14.06.23l-.3,1.69c-.14.84-.27,1.69-.42,2.53a3.57,3.57,0,0,1-.11.47.14.14,0,0,1-.17.1.16.16,0,0,1-.13-.15c0-.14,0-.29,0-.43a1.88,1.88,0,0,0-1.38-1.94l-.21-.07c-.62-.19-.66-.15-.78.51-.16.85-.2,1.71-.4,2.54,0,0,0,.07,0,.11-.12,1,0,1.14,1,1.39l.21.06a.15.15,0,0,1,.11.16c0,.12-.09.12-.19.11l-1.17-.16-3.6-.52-.58-.11c-.08,0-.13-.07-.12-.15s.08-.15.19-.14.24.06.37.07c.64.05,1-.13,1.09-.76.26-1.2.48-2.41.65-3.63.14-1,.35-2,.52-3a9.34,9.34,0,0,0,.16-1.06.87.87,0,0,0-.69-1,2.22,2.22,0,0,0-.37-.09c-.1,0-.23,0-.22-.18s.18-.15.3-.13.46.07.69.1l3.7.53,3.82.55c.12,0,.24.06.36.07s.28.13.24.33c-.14.74-.3,1.47-.37,2.21,0,0,0,.07,0,.11s0,.27-.21.25-.14-.13-.15-.24l0-.27a2.34,2.34,0,0,0-1.67-2,3,3,0,0,0-.83-.2c-.48,0-1-.12-1.43-.19s-.37,0-.43.29c-.15.88-.29,1.76-.43,2.64a5,5,0,0,1-.14.79c-.08.28.06.36.28.4Z"/><path d="M1137.6,958.17a1.09,1.09,0,0,1,.2,1.42,5.49,5.49,0,0,1-3.33,3.07,6,6,0,0,1-4.45.17,5.31,5.31,0,0,1-2.08-8.59,5.89,5.89,0,0,1,2.84-1.74c.59-.17,1.18-.28,1.78-.4s.66-.24.62-.84c0-.14,0-.26.14-.3s.19.09.24.17c.41.69.82,1.39,1.24,2.08.11.18.24.35.35.53s.17.21,0,.33-.23,0-.33-.05-.32-.24-.48-.36a3.54,3.54,0,0,0-3.34-.61,3.19,3.19,0,0,0-2.24,3.54,7.18,7.18,0,0,0,2.9,4.62,3.31,3.31,0,0,0,4.22-.17,4.54,4.54,0,0,0,1.56-2.57,2.41,2.41,0,0,1,.08-.25Z"/><path class="cls-9" d="M1123.28,963.56a.38.38,0,0,1-.16-.54,2.63,2.63,0,0,0,.17-1,1.8,1.8,0,0,0-.42-1.18c-.28-.35-.35-.36-.61,0a1.18,1.18,0,0,1-1.19.57,1.25,1.25,0,0,1-1.07-.86,1.29,1.29,0,0,1,1-1.69,2,2,0,0,1,1.54.29,2.94,2.94,0,0,1,1.17,3.48A3.73,3.73,0,0,1,1123.28,963.56Z"/><path class="cls-1" d="M1182.82,996.54c0,7-3,14.68-9.2,20.94a30.19,30.19,0,0,1-21.17,9.19,31.27,31.27,0,0,1-32.3-30.21,30.52,30.52,0,0,1,8.9-23,30.13,30.13,0,0,1,21.33-9.44C1168.61,963.48,1182.5,977.87,1182.82,996.54Z"/><path class="cls-8" d="M1149.06,1043.21c0-1.19,0-2.47,0-3.76,0-.43.08-.86.07-1.28,0-1.29,0-2.57,0-3.86,0-.12,0-.25,0-.37s.09-.35.38-.31a12.55,12.55,0,0,1,1.48.21,2.28,2.28,0,0,1,1.34.92,6.45,6.45,0,0,1,1.09,3,11.63,11.63,0,0,1-.26,4,3.44,3.44,0,0,1-2.52,2.8,2.08,2.08,0,0,1-1.16,0c-.37-.12-.47-.23-.49-.61C1149.05,1043.74,1149.06,1043.52,1149.06,1043.21Z"/><path class="cls-8" d="M1116.15,966.68a5.46,5.46,0,0,1,2.31.45,11,11,0,0,1,3.33,2.22,4.79,4.79,0,0,1,.57.77,2.15,2.15,0,0,1-.1,2.47.8.8,0,0,1-1.27.3c-.71-.42-1.4-.86-2.11-1.28l-4.65-2.77c-.71-.43-.69-.42-.17-1.06A2.5,2.5,0,0,1,1116.15,966.68Z"/><path class="cls-8" d="M1141.54,952.34a3.79,3.79,0,0,1,.51-2.28,2.56,2.56,0,0,1,3.88-.34,5.94,5.94,0,0,1,1.06,1.9,10.52,10.52,0,0,1,.59,3.85,5.28,5.28,0,0,1-.41,1.71,1.49,1.49,0,0,1-.61.73,2.52,2.52,0,0,1-3.72-.64,6.77,6.77,0,0,1-1-2.56A9.1,9.1,0,0,1,1141.54,952.34Z"/><path class="cls-10" d="M1163.18,1039.39c.14-1.53,0-3,.12-4.52,1.19,1,2.19,2.06,3.28,3.13C1165.44,1038.49,1164.35,1039,1163.18,1039.39Z"/><path d="M1142.76,985.2c.08,2.72-.09,5.42.09,8.17.17-.12.31-.21.44-.32,1.73-1.39,3.47-2.77,5.19-4.16,2-1.59,3.92-3.19,5.82-4.85.69-.6,1.35-1.23,2-1.85a14.48,14.48,0,0,0,1.61-1.8,3.44,3.44,0,0,0,.57-1.09,1.25,1.25,0,0,0-.48-1.47,2.36,2.36,0,0,0-1.45-.46c-.5,0-1,0-1.51,0-.2,0-.27-.06-.28-.28,0-.7,0-.69.66-.7l6.71-.07c1.52,0,3,0,4.56,0,1,0,1.9-.06,2.84,0,.43,0,.43,0,.44.45a1.47,1.47,0,0,0,0,.21c0,.27-.11.35-.35.34a8,8,0,0,0-1.54.17,11.14,11.14,0,0,0-3.41,1.39,33.82,33.82,0,0,0-5.49,4.1c-1.78,1.56-3.53,3.15-5.33,4.68s-3.3,2.85-5,4.28c-.07.07-.18.12-.21.29.59.5,1.18,1,1.82,1.52.38.3.75.61,1.12.92,1.39,1.15,2.77,2.32,4.17,3.46,1.82,1.48,3.62,3,5.43,4.47s3.52,3,5.41,4.32a21.37,21.37,0,0,0,3.2,1.95,16.68,16.68,0,0,0,4.06,1.34c.49.09,1,.09,1.5.14s.37,0,.38.42c0,.11,0,.22,0,.33s-.06.3-.27.28h-.16c-1.58,0-3.16,0-4.73,0-2.38,0-4.76.08-7.14.09-1.34,0-2.69,0-4,0-1,0-1.89.12-2.84.08-.5,0-.5,0-.5-.49s0-.48.49-.52a6.18,6.18,0,0,0,1.48-.24,2.75,2.75,0,0,0,.88-.5,1.36,1.36,0,0,0,.32-1.61,4.22,4.22,0,0,0-1.28-1.5c-.73-.58-1.43-1.2-2.14-1.8-1.14-1-2.32-1.9-3.49-2.85l-.78-.65c-1.45-1.2-2.87-2.42-4.35-3.59s-2.83-2.41-4.33-3.5a74.16,74.16,0,0,0,.08,8.37,14.56,14.56,0,0,0,2.57-2.87c.22-.34.27-.35.58-.15s.17.22.08.4a9.36,9.36,0,0,1-1.26,1.92,10.75,10.75,0,0,1-1.8,1.83.54.54,0,0,0-.23.5c0,.81,0,1.61,0,2.42a13,13,0,0,0,.25,1.74,2.2,2.2,0,0,0,1.49,1.62,8,8,0,0,0,3.52.58h.32c.22,0,.35,0,.32.3a1.71,1.71,0,0,0,0,.32c0,.23-.08.29-.3.32-.59.06-1.18.05-1.77.06-2.7,0-5.41,0-8.11,0-1.7.05-3.4,0-5.1.06l-2,0c-.22,0-.31-.06-.31-.31,0-.83-.07-.66.63-.67a9.71,9.71,0,0,0,2.09-.11,4.57,4.57,0,0,0,2.13-.95,2.23,2.23,0,0,0,.63-.92,7.62,7.62,0,0,0,.33-2.81c0-.19-.09-.24-.27-.24a15.51,15.51,0,0,1-2.55-.24,9.25,9.25,0,0,1-3-1.13,10.57,10.57,0,0,1-4.59-5.42,13.17,13.17,0,0,1-.78-3.16,14.36,14.36,0,0,1,.2-4.58,13.12,13.12,0,0,1,1.27-3.45,10.53,10.53,0,0,1,2-2.65,10.71,10.71,0,0,1,6.79-3.18c.23,0,.5,0,.67-.12s0-.4,0-.61a7.52,7.52,0,0,0-.2-1.49,1.8,1.8,0,0,0-1-1.27,6.36,6.36,0,0,0-4-.82c-.62.08-.87-.24-.67-.84a.16.16,0,0,1,.14-.14h.22c1,0,2.11,0,3.16,0,2.6,0,5.19,0,7.79-.07,1.65,0,3.29,0,4.94,0,.35,0,.71,0,1.07-.05.21,0,.27.08.28.28,0,.71,0,.73-.66.71a8.22,8.22,0,0,0-3.36.58,2.52,2.52,0,0,0-1.62,2,14.16,14.16,0,0,0-.1,3.05.24.24,0,0,0,.21.26.91.91,0,0,0,.85-.2,2.33,2.33,0,0,0,.66-1.08.44.44,0,0,1,.57-.3c.17.06.13.21.14.32.06.64.1,1.28.15,1.93.09,1.19.19,2.38.28,3.58.05.55.09,1.1.12,1.66,0,.09.07.23-.08.26s-.37.09-.49-.1a2,2,0,0,1-.14-.41,14,14,0,0,0-1.1-2.44A5.8,5.8,0,0,0,1142.76,985.2Z"/><path class="cls-11" d="M1175.27,991.76a9.14,9.14,0,0,1,0,2.56.35.35,0,0,1-.1.24.26.26,0,0,1-.19-.19c0-.75,0-1.5,0-2.25C1175.08,992,1175.06,991.79,1175.27,991.76Z"/><path class="cls-12" d="M1160.88,994.46a5,5,0,0,1-.17-1.81c0-.23.06-.45.09-.68.18,0,.19.14.22.26,0,.68,0,1.36.06,2A.27.27,0,0,1,1160.88,994.46Z"/><path class="cls-13" d="M1169.06,1000.23c-.07,0-.15.11-.23.11a5.36,5.36,0,0,1-1.83-.09.46.46,0,0,1,.28-.21c.58.05,1.16-.06,1.74,0C1169.08,1000.11,1169.09,1000.16,1169.06,1000.23Z"/><path class="cls-14" d="M1171.86,999.26a5,5,0,0,1-1.3.63c-.08,0-.14-.06-.12-.16a3.67,3.67,0,0,1,1.29-.62C1171.81,999.13,1171.88,999.16,1171.86,999.26Z"/><path class="cls-15" d="M1166.25,985.93l.24-.11c.1-.06.24,0,.34-.08l.19,0a.2.2,0,0,1,.15,0c.12,0,.3,0,.3.21a1.5,1.5,0,0,1-1,.2A.25.25,0,0,1,1166.25,985.93Z"/><path class="cls-16" d="M1174.85,995.72a2.83,2.83,0,0,1-.51,1,.19.19,0,0,1-.15-.15,2.45,2.45,0,0,1,.5-1C1174.79,995.59,1174.82,995.65,1174.85,995.72Z"/><path class="cls-17" d="M1161.42,996.06a2.39,2.39,0,0,1-.33-.85c0-.11,0-.14.11-.16a1,1,0,0,1,.38.84A.2.2,0,0,1,1161.42,996.06Z"/><path class="cls-18" d="M1172.71,987.35a2.9,2.9,0,0,1,.86.85.18.18,0,0,1-.13.06,1.5,1.5,0,0,1-.78-.77v-.08Z"/><path class="cls-19" d="M1169.82,985.84l.11.1a.2.2,0,0,1-.16.17c-.27,0-.55,0-.75-.22a.17.17,0,0,1,0-.15h.3C1169.5,985.84,1169.68,985.73,1169.82,985.84Z"/><path class="cls-20" d="M1175.27,991.76c-.1.09-.07.23-.1.34-.34-.21-.25-.55-.25-.86a.27.27,0,0,1,.19-.18A1.88,1.88,0,0,1,1175.27,991.76Z"/><path class="cls-21" d="M1171.42,986.51c.23,0,.39.28.64.3a.15.15,0,0,1,.07.12l0,.07a.16.16,0,0,1-.12.08,1.1,1.1,0,0,1-.69-.41C1171.28,986.58,1171.33,986.53,1171.42,986.51Z"/><path class="cls-22" d="M1163.06,987.67l.33-.33a.16.16,0,0,1,.08-.08l.2-.14a.09.09,0,0,1,.13,0,.22.22,0,0,1,0,.14,1.21,1.21,0,0,1-.6.54C1163.13,987.81,1163.09,987.75,1163.06,987.67Z"/><path class="cls-23" d="M1175.11,991.06l-.12.15c-.26-.17-.26-.44-.28-.7a.2.2,0,0,1,.16-.16A1.5,1.5,0,0,1,1175.11,991.06Z"/><path class="cls-24" d="M1173.91,997.34a1.25,1.25,0,0,1-.5.65.26.26,0,0,1-.15,0c0-.38.26-.54.5-.72A.25.25,0,0,1,1173.91,997.34Z"/><path class="cls-1" d="M1167.14,985.75l-.12,0c.38-.19.79,0,1.18-.09,0,.12-.06.17-.14.21C1167.74,985.94,1167.44,985.78,1167.14,985.75Z"/><path class="cls-25" d="M1174.55,989.59a1.52,1.52,0,0,1,.3.66c0,.07-.07.13-.15.13a.88.88,0,0,1-.3-.64A.19.19,0,0,1,1174.55,989.59Z"/><path class="cls-14" d="M1163.26,998.52a2,2,0,0,1-.64-.65.24.24,0,0,1,.14,0,.83.83,0,0,1,.55.56A.24.24,0,0,1,1163.26,998.52Z"/><path class="cls-26" d="M1173.16,998.25a2,2,0,0,1-.55.49l0-.06a.2.2,0,0,1,0-.15.88.88,0,0,1,.47-.46.17.17,0,0,1,.14,0A.77.77,0,0,1,1173.16,998.25Z"/><path class="cls-27" d="M1164.59,986.5l.38-.13c.11,0,.13,0,.15.11a.55.55,0,0,1-.53.29c-.08,0-.14,0-.14-.15v0S1164.53,986.5,1164.59,986.5Z"/><path class="cls-28" d="M1167.23,1000.16l-.23.09a.79.79,0,0,1-.52-.1.11.11,0,0,1,0-.16A.63.63,0,0,1,1167.23,1000.16Z"/><path class="cls-29" d="M1161.42,996.06l.1-.11a.38.38,0,0,1,.26.52.09.09,0,0,1-.14,0A.81.81,0,0,1,1161.42,996.06Z"/><path class="cls-30" d="M1161.13,990.68a1.3,1.3,0,0,0,.09-.52.09.09,0,0,1,.12,0,.29.29,0,0,1,.15.16.53.53,0,0,1-.21.54C1161.18,990.82,1161.16,990.74,1161.13,990.68Z"/><path class="cls-31" d="M1170.38,999.93a1.19,1.19,0,0,1-.57.18c-.07,0-.14-.06-.13-.15a.6.6,0,0,1,.55-.19A.26.26,0,0,1,1170.38,999.93Z"/><path class="cls-32" d="M1161.19,995.09l-.1.12a.88.88,0,0,1-.18-.46c.07-.07,0-.23.16-.23A.42.42,0,0,1,1161.19,995.09Z"/><path class="cls-33" d="M1164.23,999.27a1.07,1.07,0,0,1-.45-.31.2.2,0,0,1,.14-.15.49.49,0,0,1,.44.31C1164.36,999.21,1164.29,999.24,1164.23,999.27Z"/><path class="cls-20" d="M1174.31,996.79a1,1,0,0,1-.3.44.19.19,0,0,1-.15-.15.57.57,0,0,1,.29-.41C1174.24,996.66,1174.28,996.72,1174.31,996.79Z"/><path class="cls-20" d="M1161.87,989.07a1.07,1.07,0,0,1,.31-.44l.07,0a.26.26,0,0,1,.08.13.53.53,0,0,1-.3.42C1161.94,989.2,1161.9,989.14,1161.87,989.07Z"/><path class="cls-21" d="M1164.45,986.62l.11.09c0,.24-.21.29-.4.35a.26.26,0,0,1-.18-.12.1.1,0,0,1,0-.13h0c0-.08.15-.05.2-.12h0a.25.25,0,0,1,.15-.1Z"/><path class="cls-17" d="M1165.09,999.68a1.32,1.32,0,0,1-.44-.18.21.21,0,0,1,.13-.17.37.37,0,0,1,.44.2C1165.23,999.62,1165.17,999.66,1165.09,999.68Z"/><path class="cls-34" d="M1162.18,988.63a1.28,1.28,0,0,1,.37-.43.4.4,0,0,1,.15,0c.11.31-.13.39-.32.51a.33.33,0,0,1-.15,0Z"/><path class="cls-33" d="M1172.28,986.93l.32.31a.17.17,0,0,1-.15.14c-.18-.06-.38-.1-.38-.36l0,0s.06-.09.11-.1A.08.08,0,0,1,1172.28,986.93Z"/><path class="cls-35" d="M1168.1,985.73l.1-.11c.19,0,.39,0,.57.09a.58.58,0,0,1-.34.21.4.4,0,0,1-.32,0A.09.09,0,0,1,1168.1,985.73Z"/><path class="cls-20" d="M1171.86,999.26l-.12-.1c0-.25.21-.32.42-.35a.19.19,0,0,1,.15.15A1.05,1.05,0,0,1,1171.86,999.26Z"/><path class="cls-22" d="M1173.67,988.31l.33.33a.08.08,0,0,1,0,.07s0,0,0,0a.23.23,0,0,1-.14,0,.4.4,0,0,1-.34-.33.21.21,0,0,1,.07-.13Z"/><path class="cls-36" d="M1165.08,986.47l-.11-.1.33-.21a.12.12,0,0,1,.14,0,.2.2,0,0,1,.1.19A.33.33,0,0,1,1165.08,986.47Z"/><path class="cls-37" d="M1165.3,999.83l-.12-.12a.28.28,0,0,1,.15-.15.42.42,0,0,1,.43.2.2.2,0,0,1-.11.18.12.12,0,0,1-.14,0h0C1165.46,999.85,1165.37,999.87,1165.3,999.83Z"/><path class="cls-25" d="M1175.06,995.18c0,.16,0,.33-.18.45a.36.36,0,0,1-.16-.14.45.45,0,0,1,.19-.44C1175,995.05,1175,995.11,1175.06,995.18Z"/><path class="cls-38" d="M1162.52,997.76a.86.86,0,0,1-.33-.42.14.14,0,0,1,.12-.06.43.43,0,0,1,.31.23.27.27,0,0,1,0,.12.16.16,0,0,1-.07.11Z"/><path class="cls-39" d="M1170.13,986a.8.8,0,0,1,.46.18.23.23,0,0,1-.14.16.47.47,0,0,1-.45-.19C1170,986,1170.06,986,1170.13,986Z"/><path class="cls-40" d="M1175.06,995.18l-.11-.13a.21.21,0,0,1,.08-.33.15.15,0,0,1,.14,0Z"/><path class="cls-41" d="M1168.42,985.82c.09-.11.24-.06.35-.11l.29,0v.11A.45.45,0,0,1,1168.42,985.82Z"/><path class="cls-29" d="M1166.25,985.93l.12.11a.31.31,0,0,1-.4.16.2.2,0,0,1-.08-.12.15.15,0,0,1,.07-.13Z"/><path class="cls-14" d="M1162,997.13l-.15-.11a.27.27,0,0,1-.06-.22.14.14,0,0,1,.08-.13c.22.08.36.22.29.48A.29.29,0,0,1,1162,997.13Z"/><path class="cls-42" d="M1172.31,999l-.13-.1c0-.15.12-.22.25-.27s.11,0,.15.1l0,0A.61.61,0,0,1,1172.31,999Z"/><path class="cls-11" d="M1164.23,999.27l.11-.11a.27.27,0,0,1,.35.16.16.16,0,0,1-.13.14A.69.69,0,0,1,1164.23,999.27Z"/><path class="cls-43" d="M1169.06,1000.23a.11.11,0,0,0,0-.08.23.23,0,0,1,.46,0A.62.62,0,0,1,1169.06,1000.23Z"/><path class="cls-44" d="M1174.55,989.59l-.1.11a.28.28,0,0,1-.26-.29.21.21,0,0,1,.13-.16.09.09,0,0,1,.11.06Z"/><path class="cls-27" d="M1171.42,986.51l-.11.09c-.14.1-.24,0-.33-.08l0-.08,0-.08a.12.12,0,0,1,.14,0l.16,0a.44.44,0,0,1,.15.08Z"/><path class="cls-45" d="M1161.87,989.07l.1.11c.06.17,0,.28-.18.34a.18.18,0,0,1-.13-.06l0-.07s0,0,0-.07a.29.29,0,0,1,.09-.15Z"/><path class="cls-46" d="M1161.87,996.68l0,.18a.13.13,0,0,1-.09-.05l-.11-.33h.12C1161.92,996.47,1161.92,996.56,1161.87,996.68Z"/><path class="cls-47" d="M1160.92,992.22c0-.09,0-.19-.12-.25a.3.3,0,0,1,.07-.26.26.26,0,0,1,.19.16C1161.1,992,1161.1,992.16,1160.92,992.22Z"/><path class="cls-16" d="M1161.13,990.68l.1.13a.2.2,0,0,1,0,.32c-.1,0-.13,0-.15-.13Z"/><path class="cls-48" d="M1163.9,998.86l-.12.1a.37.37,0,0,1-.21-.18.11.11,0,0,1,0-.15C1163.77,998.56,1163.85,998.68,1163.9,998.86Z"/><path class="cls-1" d="M1169.82,985.84a.68.68,0,0,1-.46-.1C1169.52,985.74,1169.69,985.68,1169.82,985.84Z"/><path class="cls-12" d="M1161,991.86l-.12-.15,0-.28c.11,0,.15.05.18.13A.29.29,0,0,1,1161,991.86Z"/><path class="cls-47" d="M1161,991.58l-.13-.15a.25.25,0,0,1,.09-.23.2.2,0,0,1,.17.14A.19.19,0,0,1,1161,991.58Z"/><path class="cls-49" d="M1161,994.53c0,.07,0,.17-.1.22l0-.29.1-.13A.14.14,0,0,1,1161,994.53Z"/><path class="cls-41" d="M1166.48,1000v.11l-.3,0a.16.16,0,0,1-.08-.12.2.2,0,0,1,.08-.12A.27.27,0,0,1,1166.48,1000Z"/><path class="cls-50" d="M1169.52,1000.15l-.13-.1a.19.19,0,0,1,.29,0l.13.1Z"/><path class="cls-1" d="M1166,986a.11.11,0,0,0,0,.08.16.16,0,0,1-.16.1.2.2,0,0,1-.13,0l0-.05C1165.71,985.93,1165.83,986,1166,986Z"/><path class="cls-51" d="M1170.13,986l-.13.1c-.07,0-.14,0-.18,0l.11-.09Z"/><path class="cls-1" d="M1165.41,986.18l-.11,0c.07-.12.2-.1.31-.12h0C1165.64,986.24,1165.53,986.22,1165.41,986.18Z"/><path class="cls-52" d="M1170.67,986.17a.22.22,0,0,1,.22.1.18.18,0,0,1-.13.14.16.16,0,0,1-.14-.12A.17.17,0,0,1,1170.67,986.17Z"/><path class="cls-53" d="M1173.91,997.13l.1.1-.1.11h-.13A.16.16,0,0,1,1173.91,997.13Z"/><path class="cls-1" d="M1166.16,1000a.1.1,0,0,0,0,.09c-.13,0-.26,0-.36-.09l.06-.06A.22.22,0,0,1,1166.16,1000Z"/><path class="cls-54" d="M1172.51,987.34l.09-.1.11.11h0l0,0a.12.12,0,0,1-.07.11C1172.52,987.46,1172.46,987.43,1172.51,987.34Z"/><path class="cls-54" d="M1162.78,997.86h-.16l-.1-.11s0,0,.06,0h0a.06.06,0,0,0,0-.07C1162.78,997.64,1162.78,997.75,1162.78,997.86Z"/><path class="cls-55" d="M1162.85,987.89a.27.27,0,0,1,.17-.16.14.14,0,0,1,.09.11.19.19,0,0,1-.11.17C1162.91,988,1162.87,988,1162.85,987.89Z"/><path class="cls-56" d="M1162.85,987.89l.08.07c.1,0,0,.1,0,.15a.19.19,0,0,1-.13,0,.61.61,0,0,1,0-.12A.12.12,0,0,1,1162.85,987.89Z"/><path class="cls-1" d="M1166.83,985.74a.46.46,0,0,1-.34.08C1166.58,985.71,1166.71,985.73,1166.83,985.74Z"/><path class="cls-57" d="M1163.58,998.64v.14a.33.33,0,0,1-.19-.16l0-.07a.23.23,0,0,1,.12-.06C1163.58,998.52,1163.63,998.56,1163.58,998.64Z"/><path class="cls-40" d="M1161.1,991.32l-.11-.12,0-.2.09.13A.13.13,0,0,1,1161.1,991.32Z"/><path class="cls-41" d="M1170.38,999.93l-.13-.09c0-.08.11-.08.19,0l.12.09Z"/><path class="cls-1" d="M1165.51,999.92l.12,0a.2.2,0,0,1,.21,0,.12.12,0,0,1,0,.14h0C1165.71,1000,1165.59,1000,1165.51,999.92Z"/><path class="cls-29" d="M1175.17,994.76h-.12a.22.22,0,0,1,0-.31l.1.12Z"/><path class="cls-46" d="M1170.67,986.17v.14a.15.15,0,0,1-.2-.06l.12-.1A.08.08,0,0,1,1170.67,986.17Z"/><path class="cls-46" d="M1170.79,986.37l.1-.1a.1.1,0,0,1,.1,0s0,0,0,.05l0,0h0a.16.16,0,0,1-.11,0A.17.17,0,0,1,1170.79,986.37Z"/><path class="cls-1" d="M1164.22,986.7a.24.24,0,0,1-.2.12C1164.05,986.72,1164.13,986.7,1164.22,986.7Z"/><path class="cls-1" d="M1172.28,986.93h-.1s-.08,0-.1,0a.29.29,0,0,0,0-.09C1172.15,986.81,1172.24,986.82,1172.28,986.93Z"/><path class="cls-1" d="M1163.69,987a.25.25,0,0,1,.2-.13l0,.06a.18.18,0,0,1-.1.11A.25.25,0,0,1,1163.69,987Z"/><path class="cls-54" d="M1163,987.86l0-.13a.05.05,0,0,1,0-.06l.09.1C1163.17,987.86,1163.15,987.92,1163,987.86Z"/><path class="cls-54" d="M1162.71,988.2h-.16l.12-.12a.2.2,0,0,1,.13,0l0,0C1162.85,988.19,1162.82,988.23,1162.71,988.2Z"/><path class="cls-58" d="M1173.43,988.21h.14l.1.11h-.07l-.06,0A.14.14,0,0,1,1173.43,988.21Z"/><path class="cls-59" d="M1174.78,995.52l.1.11a.12.12,0,0,1,0,.09l-.09-.11A.05.05,0,0,1,1174.78,995.52Z"/><path class="cls-1" d="M1174.23,989a.26.26,0,0,1,.11.21l-.07,0a.15.15,0,0,1-.09-.18Z"/><path class="cls-58" d="M1163.26,998.52v-.16a.19.19,0,0,1,.15.11.31.31,0,0,1,0,.13v0Z"/><path class="cls-1" d="M1161.32,989.92a.23.23,0,0,1,.1-.22l0,0a.15.15,0,0,1-.08.19Z"/><path class="cls-60" d="M1173.26,998h.15c0,.06-.06.11-.12.11l0,0,0,0h0C1173.12,998,1173.16,998,1173.26,998Z"/><path class="cls-61" d="M1174.31,996.79l-.1-.11s0-.08,0-.09l.08.12A.11.11,0,0,1,1174.31,996.79Z"/><path class="cls-1" d="M1161.31,990.12a.19.19,0,0,1-.09,0,.26.26,0,0,1,.1-.24h0a.14.14,0,0,1,0,.1A.13.13,0,0,1,1161.31,990.12Z"/><path class="cls-62" d="M1164.56,999.46l.11-.09a.06.06,0,0,1,.09,0l-.11.1A.1.1,0,0,1,1164.56,999.46Z"/><path class="cls-1" d="M1174,988.74v-.1c.09,0,.11.11.13.2l0,0a.14.14,0,0,1-.11,0A.09.09,0,0,1,1174,988.74Z"/><path class="cls-63" d="M1162,997.13h.16c.11,0,.14,0,.11.13a.16.16,0,0,1-.15,0Z"/><path class="cls-1" d="M1161.42,989.7a.24.24,0,0,1,.12-.21l0,0c0,.11,0,.19-.14.18Z"/><path class="cls-29" d="M1165.3,999.62l-.12.09a.09.09,0,0,1-.09,0l.12-.09S1165.28,999.57,1165.3,999.62Z"/><path class="cls-1" d="M1165.3,999.83a.23.23,0,0,1,.21.09A.22.22,0,0,1,1165.3,999.83Z"/><path class="cls-64" d="M1174.75,990.36l.1-.11a.12.12,0,0,1,0,.1l-.09.11s0,0,0-.06S1174.74,990.36,1174.75,990.36Z"/><path class="cls-1" d="M1161.75,996.81l.09.05,0,.16A.22.22,0,0,1,1161.75,996.81Z"/><path class="cls-1" d="M1174.13,988.84l.1.11,0,0c-.08,0-.14,0-.09-.13Z"/><path class="cls-60" d="M1173.2,998.1h.09a.22.22,0,0,1-.13.15Z"/><path class="cls-52" d="M1171,986.37a.09.09,0,0,1,0-.07.12.12,0,0,1,.13.07Z"/><path class="cls-1" d="M1171.43,986.47a.13.13,0,0,1-.15-.08Z"/><path class="cls-1" d="M1164.59,986.5a.15.15,0,0,1-.15.08A.19.19,0,0,1,1164.59,986.5Z"/><path class="cls-1" d="M1164.38,986.6a.18.18,0,0,1-.15.1A.2.2,0,0,1,1164.38,986.6Z"/><path class="cls-1" d="M1164,986.81l0,.1a.06.06,0,0,1-.1,0h0Z"/><path class="cls-65" d="M1163.69,987h.11l0,.05,0,0h-.13A.29.29,0,0,0,1163.69,987Z"/><path class="cls-65" d="M1163.47,987.26l-.08.08Z"/><path class="cls-66" d="M1162.14,997.25l.12,0a.13.13,0,0,1,.09.1h-.16Z"/><path class="cls-1" d="M1161.54,989.49l.09-.1s0,0,0,0,0,.13-.12.13Z"/><path class="cls-56" d="M1162.8,988.07h-.13l.08-.09A.07.07,0,0,1,1162.8,988.07Z"/><path class="cls-1" d="M1174.43,989.31l-.1,0a.08.08,0,0,1,0-.08s0,0,0,0h0Z"/><path class="cls-1" d="M1161.75,989.17a.16.16,0,0,1-.09.15A.19.19,0,0,1,1161.75,989.17Z"/><path class="cls-1" d="M1136.77,983.15a.51.51,0,0,1,0,.25c0,1.49,0,3,0,4.45,0,2.74,0,5.48.07,8.22,0,1.63,0,3.26,0,4.88,0,.88,0,1.76,0,2.63a1.3,1.3,0,0,1,0,.55,6.7,6.7,0,0,1-3.27-1,8.15,8.15,0,0,1-2.5-2.39A9.43,9.43,0,0,1,1130,998a17.34,17.34,0,0,1-.43-3.29,19.43,19.43,0,0,1,.39-4.75,11.25,11.25,0,0,1,1.31-3.37,6.63,6.63,0,0,1,4.41-3.22l.67-.18A2.41,2.41,0,0,1,1136.77,983.15Z"/><path class="cls-1" d="M1162.35,997.33l-.09-.1c0-.06,0-.09-.08-.1a1.57,1.57,0,0,0-.31-.45.24.24,0,0,0-.11-.2,2.32,2.32,0,0,0-.24-.53,3.73,3.73,0,0,0-.33-.86c-.09-.18,0-.4-.18-.56l0-.2a11.43,11.43,0,0,1-.06-2.11.57.57,0,0,0,.07-.36l0-.28a.31.31,0,0,0,.07-.26l0-.19a.35.35,0,0,0,.11-.32,1,1,0,0,0,.18-.57.17.17,0,0,1,0-.14,1.26,1.26,0,0,1,.35-.6.85.85,0,0,0,.21-.32,1.29,1.29,0,0,0,.31-.45q0-.08.06-.09a1.32,1.32,0,0,0,.37-.44l.12-.11.1-.13a.14.14,0,0,0,.11-.1l.11-.09c.26-.13.41-.39.64-.55.06,0,.07-.1.11-.14s.12-.11.21-.09a1.31,1.31,0,0,0,.45-.28l.52-.24a1,1,0,0,0,.45-.2.86.86,0,0,1,.22-.15.28.28,0,0,1,.2,0l.42-.1a8.16,8.16,0,0,0,1.1-.19.88.88,0,0,1,.62,0h.33l.64,0a3.24,3.24,0,0,0,.76.18l.18,0c.13.13.31.12.47.18l.2.06c0,.06.06.07.12.06a.11.11,0,0,0,.08,0,.33.33,0,0,1,.13.07l.31.14a2.35,2.35,0,0,0,.76.42,1.28,1.28,0,0,0,.44.32l.1.08a.09.09,0,0,1,.1.08l.72.71s0,.1.1.12.08,0,.06.08a.78.78,0,0,0,.25.34.18.18,0,0,1,.11.08,1,1,0,0,1,.3.55l.2.32a2.2,2.2,0,0,0,.3.66.17.17,0,0,0,0,.1l.21.75a8.76,8.76,0,0,0,.18.89,14.08,14.08,0,0,1-.07,2.34l0,.31c-.1.08-.08.2-.1.3a1,1,0,0,0-.17.47.1.1,0,0,0,0,.09l-.5,1a.11.11,0,0,0,0,.09,1.15,1.15,0,0,0-.3.45l-.13.21-.52.65-.11.1a2.79,2.79,0,0,0-.55.48c0,.06,0,.08-.09.07a1.06,1.06,0,0,0-.33.22l-.44.3-1.3.64-.19,0c-.19.06-.4,0-.57.17l-.29,0a.4.4,0,0,0-.33.1,11.18,11.18,0,0,1-1.83,0l-.75-.12-.32-.1c-.12.07-.22,0-.31-.06a.21.21,0,0,1-.11-.07.91.91,0,0,0-.44-.19.11.11,0,0,0-.09,0,.61.61,0,0,0-.45-.19l-.09,0a.81.81,0,0,0-.33-.21,1.9,1.9,0,0,0-.44-.3.87.87,0,0,0-.32-.22.12.12,0,0,0-.11-.09.08.08,0,0,1-.09-.07l-.11-.12a2.9,2.9,0,0,0-.49-.5l-.17-.19A.88.88,0,0,0,1162.35,997.33Z"/><path class="cls-61" d="M1168.09,985.82l-.62,0c-.11-.05-.24,0-.33-.1a3.85,3.85,0,0,1,1,0A.28.28,0,0,0,1168.09,985.82Z"/><path class="cls-54" d="M1172.71,987.5l-.1-.08a.08.08,0,0,1,.05,0S1172.69,987.46,1172.71,987.5Z"/><path class="cls-67" d="M1172.08,986.9l.1,0s0,.07-.09.06A.19.19,0,0,0,1172.08,986.9Z"/><path class="cls-65" d="M1163.9,987.13l-.11.09s0-.06,0-.09l0,0S1163.88,987.09,1163.9,987.13Z"/><path class="cls-68" d="M1172.51,998.64l.09-.07,0,.12S1172.52,998.68,1172.51,998.64Z"/><path class="cls-69" d="M1161.43,990.13l0,.11-.1-.12a.12.12,0,0,1,0-.09C1161.43,990,1161.49,990,1161.43,990.13Z"/><path class="cls-54" d="M1162.34,988.64l-.06.09s-.07,0,0-.08Z"/><path class="cls-70" d="M1163.9,987.13a.12.12,0,0,0-.08,0,.24.24,0,0,1,0-.08l.1-.12h.1l.11.08Z"/><path class="cls-71" d="M1173.59,988.41l-.06-.08h.07s0,0,0,.07Z"/><path class="cls-66" d="M1173.93,988.85l-.09-.1h.16a.08.08,0,0,1,0,.09S1174,988.89,1173.93,988.85Z"/><path class="cls-72" d="M1165.74,986.19c0,.08-.13.08-.21.08l-.12-.09.21-.13.11,0s0,0,0,.07S1165.75,986.19,1165.74,986.19Z"/><path class="cls-64" d="M1165.74,999.81a.1.1,0,0,1,.1,0,.05.05,0,0,1,0,.07s0,0,0,0l-.2-.05Z"/><polygon class="cls-53" points="1162.59 997.74 1162.58 997.75 1162.57 997.72 1162.59 997.74"/><path class="cls-73" d="M1165.74,986.19v-.11l.21-.05v.11Z"/><path class="cls-54" d="M1173.93,988.85l.11,0h.08a.13.13,0,0,0,.09.13.24.24,0,0,0,.12.2v.11l-.08.1Z"/><path class="cls-52" d="M1171,986.46c-.06,0-.1,0-.13-.07h.13Z"/><path class="cls-62" d="M1161.43,990.13l-.08-.1a.31.31,0,0,1,0-.1.2.2,0,0,0,.1-.21c.09,0,.1-.13.12-.21l.12-.13.08.12A2.69,2.69,0,0,1,1161.43,990.13Z"/><path class="cls-74" d="M1165.83,1000v-.11l.32.1v.1h-.32A.11.11,0,0,1,1165.83,1000Z"/><path class="cls-56" d="M1163.38,998.48l.09.07a.09.09,0,0,1-.08.05Z"/><path class="cls-75" d="M1167.87,999.7a2.14,2.14,0,0,0-.06-1.06c.48-.06.57.4.83.61,0,.07.15.06.19.13a.53.53,0,0,1,0,.39c-.33-.11-.41-.5-.7-.65a.89.89,0,0,0,0,.48C1168,999.69,1168,999.77,1167.87,999.7Z"/><path class="cls-21" d="M1173.69,991.72l1.13.36c-.32.36-.77.42-1.08.81,0-.23-.13-.34,0-.51s.19-.31-.11-.43a.23.23,0,0,1-.06-.12A.19.19,0,0,1,1173.69,991.72Z"/><path class="cls-27" d="M1166,987.78a2,2,0,0,1-.66.32,2.13,2.13,0,0,0-.45-1.06c.06-.1.22-.11.36-.17s.06.07.06.12a1.35,1.35,0,0,0,.21.59c.12.27.13.27.46.06A.09.09,0,0,1,1166,987.78Z"/><path class="cls-76" d="M1167.05,987.43a.68.68,0,0,1-.42.11s-.07,0-.06-.07a.83.83,0,0,0-.1-.71c-.18-.31,0-.36.21-.38h.1A1.71,1.71,0,0,0,1167.05,987.43Z"/><path class="cls-77" d="M1172.94,988.66c.09,0,.2-.11.29,0s0,.16,0,.24l-.45.89c-.25-.2-.24-.19-.12-.46a.75.75,0,0,0,0-.26l0,0,.13-.14C1172.84,988.81,1172.87,988.72,1172.94,988.66Z"/><path class="cls-78" d="M1170,999.47c-.2.1-.37.19-.41-.17a1,1,0,0,0-.31-.71c.09-.14.26-.15.39-.21h.07l.06,0c.06.12.05.26.14.37s.11.14.17.19,0,.13-.06.11c-.23,0-.16.09-.15.21a.38.38,0,0,0,.11.11h0s0,0,0,.06Z"/><path class="cls-79" d="M1169.3,998a3.82,3.82,0,0,1-2.41,0,.44.44,0,0,1,.34-.16l1.88,0A.25.25,0,0,1,1169.3,998Z"/><path class="cls-80" d="M1172.85,996.8a1.38,1.38,0,0,1-.26-.48c.45-.12.81.2,1.2.15,0,.18-.07.25-.14.34s-.12.07-.19,0-.2,0-.31,0h-.05c-.06,0-.1,0-.16,0A.1.1,0,0,1,1172.85,996.8Z"/><path class="cls-81" d="M1174.22,990.48c.24,0,.19.22.3.34a2.2,2.2,0,0,0-1,.48.87.87,0,0,1-.22-.41c0-.08,0-.12.07-.15a2.43,2.43,0,0,0,.47-.08A1.27,1.27,0,0,0,1174.22,990.48Z"/><path class="cls-82" d="M1171.19,988.32c-.12-.08-.35-.09-.07-.31a1.36,1.36,0,0,0,.48-.74c.17,0,.26.11.4.22a2,2,0,0,0-.67.82A.08.08,0,0,1,1171.19,988.32Z"/><path class="cls-83" d="M1166.81,988a4.29,4.29,0,0,1,2.58.07.11.11,0,0,1,0,.16.44.44,0,0,1-.37,0,12,12,0,0,0-2.16-.11A.1.1,0,0,1,1166.81,988Z"/><path class="cls-84" d="M1173,991.75a0,0,0,0,1,0,.06c0,.06,0,.11.07.15a4.24,4.24,0,0,1,0,1.94.21.21,0,0,1-.17,0,.19.19,0,0,1-.09-.14c0-.67,0-1.34,0-2A.1.1,0,0,1,1173,991.75Z"/><path class="cls-85" d="M1170,987.78a.14.14,0,0,1-.09,0,.24.24,0,0,1-.11-.09c-.2-.15-.14-.34-.07-.52a1.6,1.6,0,0,0,.17-.64c.15,0,.27.08.42.14a1.7,1.7,0,0,0-.32.59c-.07.18-.09.34.11.44C1170.15,987.77,1170.14,987.83,1170,987.78Z"/><path class="cls-86" d="M1171.76,997.34c0-.15.12-.2.23-.25.26.24.39.63.78.73,0,.16-.18.24-.32.34a2.67,2.67,0,0,0-.7-.83Z"/><path class="cls-74" d="M1163.47,989.71c-.07-.43-.41-.57-.75-.73,0,0,0-.09,0-.14s.11-.35.32-.09a3.83,3.83,0,0,0,.48.41.33.33,0,0,1,0,.54S1163.5,989.75,1163.47,989.71Z"/><path class="cls-87" d="M1162,990.57c-.06-.06-.16-.11-.15-.21s.15-.11.25-.11h1c-.1.39-.1.39-.46.32A1.2,1.2,0,0,1,1162,990.57Z"/><path class="cls-88" d="M1163.81,990.14a4.42,4.42,0,0,1,1.39-1.4.07.07,0,0,1,.12,0,3.48,3.48,0,0,1-1.37,1.45A.22.22,0,0,1,1163.81,990.14Z"/><path class="cls-48" d="M1161.53,992.73c-.09,0-.19.15-.23.07a.27.27,0,0,1,.11-.39,1.08,1.08,0,0,1,.31-.07c.32-.07,0-.18,0-.27.3-.19.49,0,.67.19l.09.12c-.1.25-.33.25-.54.27S1161.69,992.78,1161.53,992.73Z"/><path class="cls-82" d="M1164.22,988.42c.06.08.11.17.22.19a.09.09,0,0,1,0,.09s0,0,0,0l-.27.23a1.65,1.65,0,0,0-.57-.82c-.26-.21,0-.2.07-.28l.12,0a.44.44,0,0,1,.16.1,1.62,1.62,0,0,1,.18.19l.06.11C1164.19,988.3,1164.17,988.37,1164.22,988.42Z"/><path class="cls-89" d="M1163.47,996.4a1.68,1.68,0,0,0-.82.59c-.11,0-.16-.15-.24-.26a6,6,0,0,0,.74-.56c.22-.22.25,0,.32.1s0,.05,0,.08S1163.48,996.4,1163.47,996.4Z"/><path class="cls-90" d="M1165.12,997.85a.09.09,0,0,1,.07,0,.28.28,0,0,1,.08.21,3.54,3.54,0,0,1-.34.83l-.06.05c-.16,0-.25-.12-.4-.16a5.48,5.48,0,0,0,.48-.93A.14.14,0,0,1,1165.12,997.85Z"/><path class="cls-91" d="M1166.91,998.51c.55.31.55.72,0,1.1-.09,0-.14,0-.18-.08,0-.3.2-.58.11-.89A.21.21,0,0,1,1166.91,998.51Z"/><path class="cls-64" d="M1161.53,992c-.25-.11-.09-.29-.09-.45a2.8,2.8,0,0,0,.94.18c.17,0,.18.08.15.21a.2.2,0,0,1-.12.1,1,1,0,0,1-.46,0A.67.67,0,0,0,1161.53,992Z"/><path class="cls-92" d="M1167.27,998l-.38,0a2.92,2.92,0,0,1-1.48-.56.09.09,0,0,1,0-.14A4.64,4.64,0,0,1,1167.27,998Z"/><path class="cls-93" d="M1163.07,994.33l0-.29c0-.11,0-.24-.07-.35a3.89,3.89,0,0,1,.09-1.63.57.57,0,0,1,.18.37,7.86,7.86,0,0,0,.09,1.81.18.18,0,0,1-.09.13A.16.16,0,0,1,1163.07,994.33Z"/><path class="cls-94" d="M1165,997.13a3.14,3.14,0,0,1-1-1,.16.16,0,0,1,0-.09s0,0,0,0a1.66,1.66,0,0,1,1.1,1.1A.11.11,0,0,1,1165,997.13Z"/><path class="cls-73" d="M1165.4,999a.5.5,0,0,1-.32,0,.09.09,0,0,1,0-.1.39.39,0,0,1,.08-.1.91.91,0,0,0,.11-.16,2.82,2.82,0,0,0,.19-.51.22.22,0,0,1,.09-.1c.32.35.32.44,0,.86A.16.16,0,0,1,1165.4,999Z"/><path class="cls-95" d="M1171.21,989a3.69,3.69,0,0,1,1.08,1.18c0,.11,0,.13-.1.15a4.34,4.34,0,0,1-1-1.19V989Z"/><path class="cls-96" d="M1163.67,997.12l.09-.2s0-.1.08-.11a.15.15,0,0,1,.16.12,1,1,0,0,1,0,.52c-.14.21.1.39,0,.59s-.18.24-.32.06A2.16,2.16,0,0,0,1163.67,997.12Z"/><path class="cls-97" d="M1170.89,997.33a3.4,3.4,0,0,1-1.28.59.15.15,0,0,1,0-.13l.09-.11a2,2,0,0,1,.19-.12c.35-.11.62-.44,1-.36a.07.07,0,0,1,0,.08S1170.9,997.33,1170.89,997.33Z"/><path class="cls-98" d="M1166.28,999.48c-.26-.48-.23-.64.19-1,.1,0,.14,0,.18.1a4.13,4.13,0,0,1-.19.77C1166.42,999.45,1166.38,999.51,1166.28,999.48Z"/><path class="cls-99" d="M1167.45,987l.11-.23a.49.49,0,0,1,.69.31.21.21,0,0,1-.13.2.42.42,0,0,1-.31,0C1167.62,987.29,1167.56,987.13,1167.45,987Z"/><path class="cls-100" d="M1163.25,991.09a2.08,2.08,0,0,1,.5-.86.13.13,0,0,1,.11.1c-.12.39-.14.84-.63,1A.24.24,0,0,1,1163.25,991.09Z"/><path class="cls-101" d="M1168.21,987.13c-.14-.26-.43-.23-.65-.34a.19.19,0,0,0,0-.07c0-.11,0-.16.1-.2a.43.43,0,0,1,.46.16c.18.1.3.23.21.45C1168.28,987.18,1168.24,987.18,1168.21,987.13Z"/><path class="cls-41" d="M1171.43,998.11h.11l.12.08a.29.29,0,0,1,.08.44.07.07,0,0,1-.11,0v-.19c-.08-.13-.2-.09-.31,0l-.16,0a.35.35,0,0,1-.3,0h0l0,0c-.06-.2.15-.11.21-.18l.18,0A1.17,1.17,0,0,0,1171.43,998.11Z"/><path class="cls-87" d="M1174,990.12l-.33.34a.36.36,0,0,1-.33.25.17.17,0,0,1-.2,0h0c-.07-.13,0-.2.12-.27l.1-.08.05,0,.1-.09,0-.05.1-.09a.49.49,0,0,0,.22-.25h0a.1.1,0,0,1,.14,0h0l.07.12V990A.24.24,0,0,1,1174,990.12Z"/><path class="cls-77" d="M1164,998c-.07-.2-.23-.38,0-.59l0,.26c.17,0,.25-.11.28-.22.1-.36.2-.06.37,0A1.5,1.5,0,0,0,1164,998Z"/><path class="cls-102" d="M1173,993.9h.06c.07.08,0,.17,0,.26l0,.28-.06.13a1.52,1.52,0,0,1-.24.62.09.09,0,0,1-.14,0A1.78,1.78,0,0,1,1173,993.9Z"/><path class="cls-103" d="M1162,990.57a.61.61,0,0,1,.65,0,.61.61,0,0,0-.11.41.1.1,0,0,1,0,.15.4.4,0,0,1-.2-.24h0A.71.71,0,0,1,1162,990.57Z"/><path class="cls-104" d="M1169.93,998.87c-.27-.09-.24-.26-.12-.46a.22.22,0,0,1,.19,0c.11,0,.14.18.28.14.17.21-.13.21-.14.33S1170,998.9,1169.93,998.87Z"/><path class="cls-26" d="M1173.37,990.65l.31-.19.54,0c0,.24-.24.27-.43.3s-.22,0-.33,0A.15.15,0,0,1,1173.37,990.65Z"/><path class="cls-105" d="M1168.1,986.68a1.12,1.12,0,0,1-.43-.1.27.27,0,0,1,0-.35.09.09,0,0,1,.1-.07c.07.08.18,0,.25.1s.25.14.19.32Z"/><path class="cls-106" d="M1172.51,995.54a1.92,1.92,0,0,1-.44.72l-.07,0a.16.16,0,0,1-.07-.13c.14-.28.15-.67.59-.7A.14.14,0,0,1,1172.51,995.54Z"/><path class="cls-107" d="M1170.58,987.24c0-.07,0-.13.05-.2,0-.29,0-.29.36-.14l-.29.34Q1170.64,987.33,1170.58,987.24Z"/><path class="cls-108" d="M1172.94,988.66c0,.11,0,.22-.09.3a.25.25,0,0,0-.24.11h0c-.11,0-.22-.21-.34,0a.07.07,0,0,1-.1,0,.17.17,0,0,1-.05-.12.17.17,0,0,1,.07-.1Z"/><path class="cls-109" d="M1172.21,990.25l.08-.12a2,2,0,0,1,.42.76.15.15,0,0,1-.1.06h-.06l-.1-.07-.1-.14-.1-.14,0-.1a1.09,1.09,0,0,1,0-.17A.08.08,0,0,1,1172.21,990.25Z"/><path class="cls-48" d="M1168.83,999.38a.17.17,0,0,1-.19-.13c.18-.21,0-.39-.07-.64.14.07.43-.21.29.24A2.29,2.29,0,0,0,1168.83,999.38Z"/><path class="cls-110" d="M1169.6,988.12a1.36,1.36,0,0,1,.66.29.17.17,0,0,1-.14.15.84.84,0,0,1-.65-.29C1169.46,988.18,1169.52,988.14,1169.6,988.12Z"/><path class="cls-111" d="M1172.07,996.26a2.12,2.12,0,0,1-.64.66l0-.06a.33.33,0,0,1,0-.14,1,1,0,0,1,.51-.5.32.32,0,0,1,.14,0Z"/><path class="cls-39" d="M1172.85,996.8h.07a.16.16,0,0,1,.23,0h0c0,.1-.07.26.16.32s.06.16,0,.23-.09-.09-.15-.12A1.19,1.19,0,0,1,1172.85,996.8Z"/><path class="cls-22" d="M1163.37,989.82c-.22.16-.32,0-.38-.16a.14.14,0,0,1,.09-.17c.21-.08.23.1.29.22s.05,0,0,.07S1163.38,989.82,1163.37,989.82Z"/><path class="cls-105" d="M1173.35,990.45a.43.43,0,0,0-.2.22c-.09,0-.1-.13-.11-.22s.08-.28.26-.32l.13,0a.17.17,0,0,1,.14,0,.13.13,0,0,1,0,.08s0,0,0,0h0l-.11.1h0Z"/><path class="cls-112" d="M1172.58,990.9h.13s0,0,0,.07a.44.44,0,0,0,.08.15.6.6,0,0,1,.14.39.12.12,0,0,1,0,.16A.55.55,0,0,1,1172.58,990.9Z"/><path class="cls-113" d="M1161.86,992l.52,0c.08,0,.07.1,0,.16v.12a1.91,1.91,0,0,0-.67-.19h0C1161.72,992,1161.75,991.93,1161.86,992Z"/><path class="cls-114" d="M1165.31,988.75h-.11a1.62,1.62,0,0,1,.64-.42c.08,0,.14.07.13.17C1165.79,988.67,1165.6,988.86,1165.31,988.75Z"/><path class="cls-115" d="M1163.67,997.12a1.2,1.2,0,0,1,0,1c-.08-.24.07-.53-.12-.76h0a.49.49,0,0,1,0-.11h0a.32.32,0,0,0,.12-.11Z"/><path class="cls-116" d="M1166.28,999.48l.11-.12a.39.39,0,0,1,.41.13c0,.07.08.09.13.12A.44.44,0,0,1,1166.28,999.48Z"/><path class="cls-117" d="M1170.89,997.33v-.15c0-.23.18-.32.39-.35a.25.25,0,0,1,.14,0,.08.08,0,0,1,0,0A1.55,1.55,0,0,1,1170.89,997.33Z"/><path class="cls-118" d="M1163.9,988l-.08-.11a.4.4,0,0,1,.21-.25.28.28,0,0,1,.18,0h.16c.13.18,0,.2-.14.21a.45.45,0,0,1-.21.15A.13.13,0,0,1,1163.9,988Z"/><path class="cls-119" d="M1173.36,990.12l-.32.33c-.07-.13-.22-.25,0-.4a.29.29,0,0,0,.27,0h.08Z"/><path class="cls-120" d="M1170.25,999.29c.13-.08,0-.26.14-.37.2.39.2.39-.14.46,0,0,0,0,0-.06Z"/><path class="cls-121" d="M1163.11,992.4c-.08-.11,0-.23-.07-.34a.49.49,0,0,1,0-.41c.12,0,.16.07.19.16S1163.34,992.25,1163.11,992.4Z"/><path class="cls-107" d="M1171.63,998.63h.11c-.08.26-.32.26-.52.33a.14.14,0,0,1,0-.21A.79.79,0,0,0,1171.63,998.63Z"/><path class="cls-122" d="M1163.17,991.74l-.11-.09a1.25,1.25,0,0,1,.19-.56l0,.28C1163.36,991.53,1163.44,991.68,1163.17,991.74Z"/><path class="cls-123" d="M1161.53,992.73c.11-.07.17-.26.36-.2s.11.05.12.11a.2.2,0,0,1,0,.11l-.11,0A.31.31,0,0,1,1161.53,992.73Z"/><path class="cls-124" d="M1165.94,988.43l-.1-.11a.73.73,0,0,1,.38-.14.2.2,0,0,1,.17,0C1166.34,988.47,1166.18,988.52,1165.94,988.43Z"/><path class="cls-125" d="M1164,996l0,.16a1,1,0,0,1-.31-.44.2.2,0,0,1,.14-.06C1164,995.73,1164.11,995.81,1164,996Z"/><path class="cls-126" d="M1164.06,987.69l-.24.19h-.15a.66.66,0,0,1,.32-.32.2.2,0,0,1,.24,0h0a.09.09,0,0,1,0,.12A.26.26,0,0,1,1164.06,987.69Z"/><path class="cls-16" d="M1161.87,992.8l.1-.09a.37.37,0,0,1,.35-.06c.09.05.15.11.1.22s-.06.15-.12.08S1162,992.84,1161.87,992.8Z"/><path class="cls-39" d="M1170,987.78l.11-.11a.52.52,0,0,0,.33-.12.15.15,0,0,1,0,.18C1170.33,987.87,1170.19,987.92,1170,987.78Z"/><path class="cls-127" d="M1167.45,987c.19,0,.19.17.31.23s0,0,0,.07,0,0,0,0C1167.49,987.41,1167.42,987.27,1167.45,987Z"/><path class="cls-128" d="M1170.78,988.63a1.06,1.06,0,0,1,.43.32l0,0a.24.24,0,0,1-.14,0,.5.5,0,0,1-.4-.27l0-.08,0-.07A.09.09,0,0,1,1170.78,988.63Z"/><path class="cls-129" d="M1163.35,995.1a.75.75,0,0,1-.18-.45c0-.06,0-.14.15-.13a.42.42,0,0,1,.19.44A.23.23,0,0,1,1163.35,995.1Z"/><path class="cls-130" d="M1171.21,997.88a.6.6,0,0,0-.41.22s-.08,0-.11,0c.07-.26.28-.31.52-.33a.07.07,0,0,1,0,.08S1171.22,997.88,1171.21,997.88Z"/><path class="cls-131" d="M1167.77,987.36v-.11h.35a.19.19,0,0,1,.1.1C1168.07,987.47,1167.92,987.53,1167.77,987.36Z"/><path class="cls-45" d="M1163.4,997.56l-.05.26a.34.34,0,0,1-.27-.23c0-.12.09-.06.15-.06A.14.14,0,0,1,1163.4,997.56Z"/><path class="cls-132" d="M1162,992.61l-.08-.08a1.44,1.44,0,0,0,.61-.15v.26a.58.58,0,0,1-.23,0C1162.17,992.65,1162.06,992.69,1162,992.61Z"/><path class="cls-133" d="M1171.21,998.75V999c-.16,0-.33-.18-.28-.25S1171.12,998.74,1171.21,998.75Z"/><path class="cls-134" d="M1166.41,988.22l-.19,0a1.11,1.11,0,0,1,.59-.18v.12C1166.73,988.37,1166.58,988.31,1166.41,988.22Z"/><path class="cls-135" d="M1165,997.13l.16,0c.18-.06.27,0,.3.19v.14A1.07,1.07,0,0,1,1165,997.13Z"/><path class="cls-26" d="M1173.58,990.13l-.11,0V990c.1-.14.28-.15.42-.23a.34.34,0,0,1-.19.35h0v0h-.08Z"/><path class="cls-43" d="M1170.47,987.73v-.18l.12-.31h.12A.75.75,0,0,1,1170.47,987.73Z"/><path class="cls-136" d="M1166.59,998.63l-.12-.12c.15-.14.3-.17.44,0a.12.12,0,0,1,0,.1A.35.35,0,0,1,1166.59,998.63Z"/><path class="cls-137" d="M1166,987.78l0-.14v-.31C1166.16,987.65,1166.16,987.65,1166,987.78Z"/><path class="cls-138" d="M1167.67,986.23v.35c-.07,0-.1.07-.13.14C1167.34,986.49,1167.46,986.35,1167.67,986.23Z"/><path class="cls-51" d="M1168.21,986.58c0-.1-.2-.16-.16-.32h.07C1168.38,986.3,1168.34,986.43,1168.21,986.58Z"/><path class="cls-11" d="M1162.49,991.13l0-.15h.21a.14.14,0,0,1,0,.15c0,.07,0,.17-.13.17S1162.51,991.2,1162.49,991.13Z"/><path class="cls-139" d="M1164.44,988.74v-.13l.2-.32a.16.16,0,0,1,.13.13A.61.61,0,0,1,1164.44,988.74Z"/><path class="cls-140" d="M1171.19,988.32h.14a.59.59,0,0,0,.42.12.11.11,0,0,1,0,.13.3.3,0,0,1-.21,0A.42.42,0,0,1,1171.19,988.32Z"/><path class="cls-48" d="M1161.86,992l-.11.13a.19.19,0,0,1-.22-.08C1161.62,991.83,1161.73,991.82,1161.86,992Z"/><path class="cls-141" d="M1167.87,999.7l.21-.1.1.17a.32.32,0,0,1-.36,0,.06.06,0,0,1,0,0Z"/><path class="cls-48" d="M1170.69,998.09h.11c0,.09.12.1.2.12l-.21.18C1170.62,998.34,1170.66,998.22,1170.69,998.09Z"/><path class="cls-142" d="M1165.52,998.09l0,.13c-.13,0-.22,0-.31-.12v-.22A.46.46,0,0,1,1165.52,998.09Z"/><path class="cls-143" d="M1162.5,992c0-.11,0-.2-.12-.23,0-.08.12-.17.19-.12s0,.23,0,.34l0,0Z"/><path class="cls-144" d="M1173.57,992c-.1-.1-.13-.21,0-.31s.12,0,.16.05,0,0,0,0S1173.66,991.94,1173.57,992Z"/><path class="cls-145" d="M1163.57,995.54a.56.56,0,0,1-.19-.35.16.16,0,0,1,.15,0,.24.24,0,0,1,.13.26A.3.3,0,0,1,1163.57,995.54Z"/><path class="cls-146" d="M1164.77,988.42l-.13-.13a.28.28,0,0,1,0-.09c0-.05.09-.05.14,0S1164.9,988.35,1164.77,988.42Z"/><path class="cls-147" d="M1172.51,995.54l0-.17c0-.1,0-.17.09-.19h.13A.62.62,0,0,1,1172.51,995.54Z"/><path class="cls-148" d="M1163.57,995.54l0-.17c.22,0,.3.14.25.36h-.15Z"/><path class="cls-149" d="M1170.28,998.51c-.17.21-.18,0-.27-.08s.09-.08.13-.12S1170.24,998.44,1170.28,998.51Z"/><path class="cls-150" d="M1163.4,997.56l-.17,0,.22-.19,0,0,0,0h0C1163.54,997.42,1163.51,997.53,1163.4,997.56Z"/><path class="cls-75" d="M1164.23,988c.06.07.13.12.12.22a.17.17,0,0,1-.24,0h0a.2.2,0,0,1,0-.22A.09.09,0,0,1,1164.23,988Z"/><path class="cls-15" d="M1168.12,986.25l0,0h0c-.12,0-.23.06-.28-.1A.54.54,0,0,1,1168.12,986.25Z"/><path class="cls-11" d="M1162.3,992.62l.19,0-.07.23a.29.29,0,0,0-.15-.16C1162.24,992.66,1162.26,992.63,1162.3,992.62Z"/><path class="cls-151" d="M1168.21,987.35s-.1,0-.1-.1l.1-.12h.1C1168.33,987.23,1168.32,987.31,1168.21,987.35Z"/><path class="cls-152" d="M1172.17,989.05h.1c0,.05,0,.13,0,.14s-.15,0-.18-.12l0-.05Z"/><path class="cls-153" d="M1164.77,988.2h-.14c-.08,0-.1-.14-.05-.16S1164.74,988.1,1164.77,988.2Z"/><path class="cls-154" d="M1169.6,997.78v.14a.08.08,0,0,1-.12,0c-.07,0-.14-.05-.13-.15S1169.51,997.69,1169.6,997.78Z"/><path class="cls-155" d="M1169.38,997.87l.11.09-.19,0-.13-.1C1169.22,997.82,1169.29,997.82,1169.38,997.87Z"/><path class="cls-152" d="M1172.19,988.87a.41.41,0,0,0,0,.11.24.24,0,0,0-.08.06l0,0c-.06,0-.12-.1-.09-.17S1172.11,988.87,1172.19,988.87Z"/><path class="cls-156" d="M1164.11,988.2h.23a.11.11,0,0,1,0,.11c-.06,0-.11.05-.12.12S1164.13,988.28,1164.11,988.2Z"/><path class="cls-157" d="M1170.14,998.31l-.13.12-.2,0h0s0,0,0-.07l0,0C1169.93,998.32,1170,998.26,1170.14,998.31Z"/><path class="cls-48" d="M1171.32,998.4c.12-.12.23-.13.31,0Z"/><path class="cls-158" d="M1170.35,988.44a.2.2,0,0,1,.22.08.16.16,0,0,1-.12.14.15.15,0,0,1-.15-.11A.16.16,0,0,1,1170.35,988.44Z"/><path class="cls-159" d="M1163.27,994.54l-.1.11,0-.18a.1.1,0,0,1,0-.14h.07A.14.14,0,0,1,1163.27,994.54Z"/><path class="cls-105" d="M1173.15,990.67l.22,0v0a.09.09,0,0,1,0,.13l-.09.07A.2.2,0,0,1,1173.15,990.67Z"/><path class="cls-160" d="M1163,993.69c.12.1.1.22.07.35A.44.44,0,0,1,1163,993.69Z"/><path class="cls-34" d="M1170.25,999.29v.09c0,.1-.13.1-.22.09v-.09Z"/><path class="cls-161" d="M1173.57,992c0-.07,0-.21.12-.21V992C1173.66,992.05,1173.63,992.09,1173.57,992Z"/><path class="cls-162" d="M1164.23,987.56H1164C1164.07,987.45,1164.15,987.44,1164.23,987.56Z"/><path class="cls-163" d="M1164.23,988h-.12s-.06,0-.08,0,.12-.1.2-.1Z"/><path class="cls-164" d="M1169.6,988.12l-.11.09s-.07,0-.1,0v-.12Z"/><path class="cls-165" d="M1171.85,988.39s.07-.08.1,0,0,.15-.09.18S1171.8,988.44,1171.85,988.39Z"/><path class="cls-166" d="M1170.35,988.44v.11a.14.14,0,0,1-.21-.06l.12-.08A.08.08,0,0,1,1170.35,988.44Z"/><path class="cls-166" d="M1170.46,988.61l.11-.09.1,0v.07h0a.14.14,0,0,1-.12.06A.12.12,0,0,1,1170.46,988.61Z"/><path class="cls-82" d="M1171.51,988.53h.24l0,.05,0,.06h0a.09.09,0,0,1-.12,0A.13.13,0,0,1,1171.51,988.53Z"/><path class="cls-143" d="M1162.41,992.14l0-.16.12,0,0,0c0,.07,0,.13-.06.16A.06.06,0,0,1,1162.41,992.14Z"/><path class="cls-167" d="M1172.92,991.65l0-.15a.3.3,0,0,1,.09.25h-.1s0,0,0-.06S1172.91,991.65,1172.92,991.65Z"/><path class="cls-168" d="M1173.06,994.16l0-.26h.1A.28.28,0,0,1,1173.06,994.16Z"/><path class="cls-169" d="M1162.75,991.13l0-.15c0-.05.06-.06.08,0A.11.11,0,0,1,1162.75,991.13Z"/><path class="cls-170" d="M1171.21,997.88v-.12q.06-.13.12,0a.1.1,0,0,1,0,.15A.38.38,0,0,1,1171.21,997.88Z"/><path class="cls-48" d="M1170.86,998.43h.3A.21.21,0,0,1,1170.86,998.43Z"/><path class="cls-171" d="M1163.37,989.82v-.11h.1a.08.08,0,0,1,.08,0A.16.16,0,0,1,1163.37,989.82Z"/><path class="cls-26" d="M1174,989.81h-.14s0-.11.06-.12S1174,989.75,1174,989.81Z"/><path class="cls-172" d="M1162.72,988.84V989c0,.07-.07.08-.09,0S1162.64,988.87,1162.72,988.84Z"/><path class="cls-173" d="M1163.5,995.18h-.12a.11.11,0,0,1,0-.09l.1-.12A.14.14,0,0,1,1163.5,995.18Z"/><path class="cls-174" d="M1169.93,998.87c.06-.07.13-.06.21,0V999A.25.25,0,0,1,1169.93,998.87Z"/><path class="cls-22" d="M1165.09,999a.28.28,0,0,1,0,.09c-.09,0-.18,0-.21-.09v0A.15.15,0,0,1,1165.09,999Z"/><path class="cls-113" d="M1162.48,992.16l.06-.16.06,0C1162.62,992.06,1162.6,992.14,1162.48,992.16Z"/><path class="cls-175" d="M1163.47,996.4v-.13c.07,0,.12.08.09.15S1163.49,996.45,1163.47,996.4Z"/><path class="cls-48" d="M1171.43,998.11a.24.24,0,0,1-.25.07A.25.25,0,0,1,1171.43,998.11Z"/><path class="cls-176" d="M1171.31,997.91l0-.15c.09,0,.14.09.09.18S1171.34,998,1171.31,997.91Z"/><path class="cls-177" d="M1165.12,997.85l-.17,0s-.07-.07,0-.1S1165.07,997.78,1165.12,997.85Z"/><path class="cls-105" d="M1173.28,990c-.09.12-.18.13-.27,0Z"/><path class="cls-61" d="M1173.12,997.24a.18.18,0,0,1,.15.12C1173.15,997.43,1173.15,997.43,1173.12,997.24Z"/><path class="cls-57" d="M1171.85,988.39v.14h0a.07.07,0,0,1-.11,0h0a.33.33,0,0,0,0-.1Z"/><path class="cls-26" d="M1174,990.12l.08-.09A.09.09,0,0,1,1174,990.12Z"/><path class="cls-158" d="M1170.67,988.63a.08.08,0,0,1,0-.07l.11.07Z"/><path class="cls-140" d="M1171.75,988.52h.11a.12.12,0,0,1-.11.12Z"/><path class="cls-140" d="M1171.63,988.64h.12C1171.72,988.72,1171.67,988.71,1171.63,988.64Z"/><path class="cls-167" d="M1173.13,992a.16.16,0,0,1-.07-.15A.13.13,0,0,1,1173.13,992Z"/><path class="cls-26" d="M1174.09,989.92a.11.11,0,0,1-.07-.12A.1.1,0,0,1,1174.09,989.92Z"/><path class="cls-48" d="M1171.66,998.19l-.12-.08A.11.11,0,0,1,1171.66,998.19Z"/><path class="cls-104" d="M1169.83,998.32a.16.16,0,0,0,0,.1l-.12,0A.09.09,0,0,1,1169.83,998.32Z"/><path class="cls-109" d="M1172.81,991.11a.19.19,0,0,1-.08-.15A.16.16,0,0,1,1172.81,991.11Z"/><path class="cls-178" d="M1173.47,990v.08h-.11v-.07Z"/><path class="cls-160" d="M1163.16,994.33l0,.14a.11.11,0,0,1-.06-.14Z"/><path class="cls-179" d="M1171.75,997.33s0,.08,0,.09,0,0,0,0,0,0,.09,0Z"/><path class="cls-168" d="M1173,994.57a.12.12,0,0,1,.06-.13A.11.11,0,0,1,1173,994.57Z"/><path class="cls-22" d="M1165.4,999a.1.1,0,0,1,.11-.07A.09.09,0,0,1,1165.4,999Z"/><path class="cls-34" d="M1170,999.38a.12.12,0,0,1-.11-.11Z"/><path class="cls-180" d="M1163.81,990.14h.11c0,.08,0,.12-.1.11l-.07,0Z"/><path class="cls-181" d="M1163.69,997.12a.13.13,0,0,1-.12.11C1163.57,997.15,1163.6,997.11,1163.69,997.12Z"/><path class="cls-162" d="M1164.23,987.67v-.11l.14.11h0l0,0,0,.05Z"/><path class="cls-133" d="M1163.54,997.33h-.09c0-.07,0-.12.13-.12Z"/><path class="cls-39" d="M1169.82,987.66a.1.1,0,0,1,.11.09A.1.1,0,0,1,1169.82,987.66Z"/><path class="cls-30" d="M1164.34,988.3a.21.21,0,0,1,0-.11c.05,0,.09,0,.08.08S1164.36,988.29,1164.34,988.3Z"/><path class="cls-182" d="M1174.16,992a.1.1,0,0,1,.11.09s0,0-.07,0a.07.07,0,0,1-.1-.07S1174.14,992.05,1174.16,992Z"/><path class="cls-183" d="M1172.61,989.07c0-.08,0-.18.1-.21s.12,0,.14.1S1172.7,989.06,1172.61,989.07Z"/><path class="cls-184" d="M1163.82,990.25l.1-.11,1.39-1.39a2.87,2.87,0,0,0,.63-.32,1.17,1.17,0,0,0,.47-.21.7.7,0,0,0,.4-.1c.3,0,.59-.09.89-.12a5.66,5.66,0,0,1,1.69.19l.1,0a3.11,3.11,0,0,0,.65.28l.21.06.11.06.1,0,.11.08c.13.09.23.22.39.24a.23.23,0,0,1,.15.12,11.21,11.21,0,0,1,1,1.17.28.28,0,0,0,0,.09l0,0-.14,0c-.41-.07-.65.2-1,.43.27.17.51.49.55-.11,0-.32.24-.3.46-.25a.46.46,0,0,1,.18.13.4.4,0,0,1,.13.33l0,0h0a.16.16,0,0,1,.11-.09h.09a1.76,1.76,0,0,0,.34.75.36.36,0,0,0,0,.1,6.46,6.46,0,0,1,0,2.15,9.49,9.49,0,0,1-.4,1.28.25.25,0,0,0-.09.19,3.89,3.89,0,0,0-.5.79.07.07,0,0,1,0,.1,2.56,2.56,0,0,0-.52.52.2.2,0,0,1-.15.13.81.81,0,0,0-.39.27l-1.07.52a.24.24,0,0,0-.11.06l-.1,0a.21.21,0,0,0-.22.09l-.21,0a8.07,8.07,0,0,1-1.9.07,7.58,7.58,0,0,1-1.85-.67.56.56,0,0,0-.3-.19L1164,996a.51.51,0,0,0-.19-.28.72.72,0,0,0-.25-.36.22.22,0,0,0-.09-.19c0-.06,0-.13,0-.2s-.06-.32-.18-.44l0-.21a4.84,4.84,0,0,1-.12-1.93l.06-.66c.11-.1.09-.24.1-.37C1163.46,991,1163.64,990.62,1163.82,990.25Z"/><path class="cls-185" d="M1173.15,996.81h-.23c0-.06,0-.16,0-.18S1173.12,996.71,1173.15,996.81Z"/><path class="cls-186" d="M1173.34,990.82l0-.13c.15,0,.33-.18.43.09C1173.63,990.75,1173.51,991,1173.34,990.82Z"/><path class="cls-187" d="M1164,988h.08v.21a.28.28,0,0,1-.21-.21Z"/><path class="cls-132" d="M1165.09,999a.28.28,0,0,0-.22,0c0-.34.2-.58.32-.85.14,0,.21.07.31.12a.92.92,0,0,1-.2.62l-.11.11Z"/><path class="cls-188" d="M1166.59,998.63a.53.53,0,0,1,.33,0c.21.33,0,.6-.12.88a.41.41,0,0,1-.41-.13A1.06,1.06,0,0,1,1166.59,998.63Z"/><path class="cls-22" d="M1165.19,999l.11-.11A.13.13,0,0,1,1165.19,999Z"/><path class="cls-189" d="M1171.21,989.08l-.15-.12.13,0A.29.29,0,0,1,1171.21,989.08Z"/><path class="cls-154" d="M1169.7,997.76l.11-.07Z"/><path class="cls-26" d="M1173.35,990.45l.12-.1Z"/><path class="cls-26" d="M1173.47,990.35l.11-.1Z"/><path class="cls-26" d="M1173.58,990.25v-.12h0a.08.08,0,0,1,.1,0l0,0Z"/><path class="cls-190" d="M1162.29,990.76c0-.06-.15-.15,0-.18s.09.1.11.17S1162.33,990.81,1162.29,990.76Z"/><path class="cls-19" d="M1162.29,990.76a.11.11,0,0,0,.11,0l-.11.14h0Z"/><path class="cls-191" d="M1171.94,996.26l0-.1s0,0,0,.07Z"/><path class="cls-192" d="M1172.1,989s0-.07.08-.06a.17.17,0,0,0,0,.07h0Z"/><path class="cls-193" d="M1172.49,990.89l-.09.22s-.07,0-.09,0a1.26,1.26,0,0,0-.13-.43.15.15,0,0,1,.12-.12l.11.14c0,.06,0,.15.09.21Z"/><path class="cls-194" d="M1172.3,990.55l-.12.12-.11-.1a.18.18,0,0,1,.12-.13.1.1,0,0,1,.1,0A.17.17,0,0,1,1172.3,990.55Z"/><path class="cls-184" d="M1172.5,990.9a.27.27,0,0,1-.09-.21A.22.22,0,0,1,1172.5,990.9Z"/><path class="cls-184" d="M1172.29,990.48a.19.19,0,0,0-.1,0l0,0,0,0,0,0Z"/><path class="cls-195" d="M1171.27,996.91l.15-.13a.28.28,0,0,1,0,.09Z"/><path class="cls-162" d="M1164.06,987.69l.17,0h0l0,0,0,0Z"/><path class="cls-76" d="M1164.23,987.75v-.08h.07C1164.35,987.75,1164.31,987.76,1164.23,987.75Z"/><path class="cls-196" d="M1162.3,992.62a.16.16,0,0,1,0,.09h-.3v-.1Z"/><path class="cls-158" d="M1170.67,988.72l-.11-.08h.11Z"/><path class="cls-1" d="M1173.67,990.13a.17.17,0,0,0-.1,0S1173.62,990,1173.67,990.13Z"/><path class="cls-197" d="M1166.91,995.51v.19c-.07.13,0,.28-.09.41s-.2.31,0,.44.36.25.57.06.1-.17.22-.13a1.65,1.65,0,0,0,.2.31c.15.19.36.19.47,0s.38-.23.52-.4c.24.21.42.44.21.77a4.13,4.13,0,0,1-1.64.1h0a9.67,9.67,0,0,1-1.28-.44H1166c-.14,0-.19-.11-.26-.21a5.2,5.2,0,0,1-.78-.7.76.76,0,0,0-.45-.26c-.53-.11-.69-.4-.59-1,.31,0,0,.33.22.42.39.33.44.34.75.13.13-.15.23-.05.33,0s.07.21.23.13a.22.22,0,0,1,.35.11.18.18,0,0,1,0,.14c.07,0,.07-.06.12-.09a.19.19,0,0,1,.18,0s.23,0,.14.14a6.28,6.28,0,0,1-.42.51.71.71,0,0,0,.44.3l.49-.93A.14.14,0,0,1,1166.91,995.51Z"/><path class="cls-198" d="M1172.3,993.47a5.68,5.68,0,0,1-.55,1.61c0,.06-.06.09-.09.13a2.64,2.64,0,0,1-1.06,1.18c-.07.06-.18,0-.25.08h-.21c-.1-.08-.22,0-.33-.05h-.2a.18.18,0,0,1-.13,0,.09.09,0,0,1,0-.13h.09a.23.23,0,0,1,.25,0c.52.08.82-.28,1.14-.59.1-.1.07-.2,0-.27a.26.26,0,0,1-.1-.4c.14,0,.21.14.31.21s.13.08.18,0a.15.15,0,0,0,0-.2c-.12-.13-.37-.18-.27-.46.15,0,.24.12.36.17s.14,0,.18-.05.08-.17,0-.23-.36-.1-.3-.38c.17,0,.31.13.51.11a2.57,2.57,0,0,0,.18-1.37c-.16-.13-.43.13-.5-.22.11-.16.35,0,.47-.15s0-.21,0-.31-.15-.32-.37-.2-.23,0-.31-.15a1.45,1.45,0,0,1,.64-.23c.16,0,.23.05.24.2a.6.6,0,0,0,.16.25.88.88,0,0,1,0,.15,4.1,4.1,0,0,0,.1.48A1.22,1.22,0,0,1,1172.3,993.47Z"/><path class="cls-198" d="M1165.17,991.44l-.19-.13a.54.54,0,0,0-.12-.09h0a.17.17,0,0,0-.13-.1c-.31.1-.29.41-.4.63s.05.12.06.18a.93.93,0,0,1,0,.13,1.16,1.16,0,0,0,0,.18c0,.08.1.14.06.24l-.25.07s-.1-.16-.13,0a1,1,0,0,0,0,.68c.09.18.29.12.43.09s.39.07.49.28a1.1,1.1,0,0,1-1.18,0,3.87,3.87,0,0,1,1.44-3.82c.13-.11.23-.38.5-.27a.44.44,0,0,1,.08.11.09.09,0,0,1,0,.08.26.26,0,0,0,.09.14h0c.09.1,0,.18,0,.24-.25,0-.24.21-.3.38s-.08.4-.35.4c-.1,0-.26-.2-.31.07l.06.09.05,0,.1.07a.39.39,0,0,1,.1.08.46.46,0,0,1,.11.16.28.28,0,0,1,0,.2.09.09,0,0,1-.13,0h0A.3.3,0,0,0,1165.17,991.44Z"/><path class="cls-199" d="M1169,992.61a.51.51,0,0,1,.6-.05,4.78,4.78,0,0,0,.75.27c.09,0,.19,0,.2.14a.24.24,0,0,1-.13.27,2.54,2.54,0,0,1-1.41.19c-.29-.07-.38-.34-.51-.64a.9.9,0,0,1-.78.69c-.11,0-.14,0-.12-.12a3.11,3.11,0,0,0,.65-.75c.07-.06,0-.17.11-.22a9.65,9.65,0,0,1,.06-1.32s.06,0,.11-.07a3,3,0,0,1,.14.93,1.74,1.74,0,0,0,.12.68c.11.09.1.22.13.33C1168.88,992.83,1168.84,992.7,1169,992.61Z"/><path class="cls-200" d="M1166.07,993.24c.65,0,.85-.18.82-.8,0-.31-.06-.63-.08-1a1.13,1.13,0,0,1,0-.32.17.17,0,0,1,.2-.14c.09,0,.1.09.1.16,0,.5.08,1,.1,1.49s-.27.63-.53.88a.49.49,0,0,1-.73,0s0-.06,0-.08S1165.87,993.23,1166.07,993.24Z"/><path class="cls-201" d="M1168.33,989c.49.27.26.71.28,1.1-.17,0-.29-.07-.28-.27a1.06,1.06,0,0,0,0-.53.17.17,0,0,0-.16-.12.27.27,0,0,0-.15.13,1.18,1.18,0,0,0,0,.53c0,.13,0,.23-.14.25s-.14-.11-.15-.21a1.23,1.23,0,0,1,.19-.95.22.22,0,0,1,.15-.18.3.3,0,0,1,.31.09A.22.22,0,0,1,1168.33,989Z"/><path class="cls-202" d="M1166.7,993.67c.18.32.07.65.08,1,0,0-.06.08-.11.1a.11.11,0,0,1-.13-.06,1.77,1.77,0,0,1,0-.2c0-.11-.07-.16-.17-.15a.16.16,0,0,0-.17.16.44.44,0,0,1,0,.16.1.1,0,0,1-.11.09.13.13,0,0,1-.13-.13,2.14,2.14,0,0,1,0-.94C1166.2,993.7,1166.45,993.82,1166.7,993.67Z"/><path class="cls-203" d="M1170,989.3c.53.09.81.51,1.22.86-.19.11-.3.21-.47,0s-.2-.33-.42-.15c-.07.05-.13,0-.19,0s-.23.08-.35.08-.35,0-.2-.27l.33-.43A.11.11,0,0,1,1170,989.3Z"/><path class="cls-204" d="M1172.19,990.45l-.12.12a.76.76,0,0,0-.16,0c-.24,0-.34.08-.19.32a1,1,0,0,1,.09.18c-.43.28-.43.28-1-.21.41-.2.66-.73,1.24-.46l.12.08Z"/><path class="cls-205" d="M1167.45,996.69c0,.07,0,.15-.08.17a.5.5,0,0,1-.21,0c-.71-.11-.77-.23-.44-.85l.18-.32c0,.37.29.18.48.16,0,.1.07.19,0,.29s-.28,0-.5,0c0,0,.1.09.08,0,.31,0,.42.17.44.45A.1.1,0,0,0,1167.45,996.69Z"/><path class="cls-206" d="M1167.84,994.62s0,.09,0,.11a.14.14,0,0,1-.19,0c-.16-.27-.3-.26-.46,0,0,0-.1,0-.14,0s-.09-.09-.07-.16c.08-.26.15-.52.25-.76a.2.2,0,0,1,.37,0C1167.68,994.06,1167.75,994.35,1167.84,994.62Z"/><path class="cls-207" d="M1169.62,989.82c0,.24.12.23.25.16s.1-.2.18-.25.2,0,.18.17c-.14.35.33.62.13,1h0c-.19.06-.3-.1-.45-.15a1.11,1.11,0,0,0-.43.15l-.29-.35a.48.48,0,0,1,.39-.12l0,0h0c-.06,0-.09,0-.08-.12S1169.43,989.93,1169.62,989.82Z"/><path class="cls-208" d="M1169.68,994.58c0,.14-.15.16-.21.09s-.35-.23-.5,0c0,0-.09,0-.14,0a.09.09,0,0,1-.07-.12c.09-.27.16-.54.27-.81a.19.19,0,0,1,.34-.06A5.59,5.59,0,0,1,1169.68,994.58Z"/><path class="cls-202" d="M1167.23,990.28c.12-.61-.26-1.2.17-1.77,0,.51.11,1,.15,1.53C1167.56,990.18,1167.45,990.26,1167.23,990.28Z"/><path class="cls-209" d="M1166.39,989.92s0-.11,0-.14.26-.11.19-.28-.2,0-.31,0-.22-.06-.24-.2a.2.2,0,0,1,.09-.15l.12,0a.14.14,0,0,0,.11,0,1.15,1.15,0,0,1,.62-.12c-.28.29.09.77-.39,1A.16.16,0,0,1,1166.39,989.92Z"/><path class="cls-210" d="M1170.51,994.6c-.48.28-.68.18-.69-.33a3.87,3.87,0,0,1,0-.48s0,0,.07-.08.17.16.19.27C1170.19,994.41,1170.18,994.41,1170.51,994.6Z"/><path class="cls-211" d="M1169.17,989.79h-.11c-.07-.08-.28,0-.22-.21h0a.32.32,0,0,1,.27,0h0a.16.16,0,0,0,.15-.1.17.17,0,0,0-.15-.22c-.15,0-.24-.13-.15-.3a.38.38,0,0,1,.13-.09.54.54,0,0,1,.51.18c.1.08.27.06.31.23h0c-.29,0-.43.29-.64.44Z"/><path class="cls-212" d="M1163.88,994.1l-.32-.2a1.93,1.93,0,0,1,1.52-.2l-.1.32C1164.64,994.34,1164.24,994,1163.88,994.1Z"/><path class="cls-213" d="M1165.3,990.78a.54.54,0,0,0,.32-.67c0-.12,0-.21.1-.25s.17.1.23.16.29.23.2.44l-.18.11c-.08,0-.13,0-.15.07s-.08.38-.33.39S1165.25,991,1165.3,990.78Z"/><path class="cls-214" d="M1165.3,990.78l.24.25a.13.13,0,0,1,0,.12.31.31,0,0,0,0,.27c.09.19,0,.29-.17.35v-.13a.09.09,0,0,1,0-.07s0,0,0,0l0-.21a.28.28,0,0,0-.1-.09l-.08,0a.21.21,0,0,1-.13-.09h0L1165,991c-.19-.13-.2-.28,0-.41S1165.21,990.68,1165.3,990.78Z"/><path class="cls-215" d="M1169.49,996.26l0,.11a1.57,1.57,0,0,1,0,.23.18.18,0,0,0,.14.1.5.5,0,0,1,.2.08c.12.12.14.25,0,.36a.43.43,0,0,1-.58,0c-.22-.15-.16-.38-.19-.59S1169.28,996.23,1169.49,996.26Z"/><path class="cls-216" d="M1169.28,997a.49.49,0,0,0,.43.11c.19,0,.19-.15,0-.34,0-.17.1-.14.19-.15a.21.21,0,0,1,.13.05c.16.41,0,.66-.37.68a.48.48,0,0,1-.5-.23C1169.13,997,1169.17,997,1169.28,997Z"/><path class="cls-217" d="M1165.08,993.7l-1.22.06c-.11,0-.25,0-.3.14-.1-.11-.07-.18.07-.21s.21,0,.27-.11l1.18,0Z"/><path class="cls-218" d="M1167.86,991.76c-.27,0-.38-.25-.53-.43s0-.16.14-.14.47.15.53.43S1168,991.78,1167.86,991.76Z"/><path class="cls-219" d="M1172.3,993.47l0-1c0-.12-.09-.3,0-.32s.17.22.26.34a1.18,1.18,0,0,1,.13.18v.15c-.23.1-.16.31-.17.48Z"/><path class="cls-220" d="M1166.7,993.67c-.06,0-.13.05-.16.12s0,.3-.2.31-.17-.16-.2-.29-.11-.12-.19-.13v-.13a1.5,1.5,0,0,0,.73,0Z"/><path class="cls-221" d="M1166.15,990.46l-.2-.44c.1,0,.09-.12.1-.2.12.15.22.32.35.46s.16.32,0,.41S1166.26,990.53,1166.15,990.46Z"/><path class="cls-222" d="M1168.32,994.54a1.1,1.1,0,0,1,.26,0,.09.09,0,0,1,.05.13c-.1.15-.25.07-.38.08s-.23,0-.25-.13a2.66,2.66,0,0,1,0-.89c0-.08.14-.08.21,0l0,.07a1.53,1.53,0,0,0,0,.67Z"/><path class="cls-223" d="M1165.74,995.51c-.16-.18-.27-.08-.37.07s-.11.15-.22.06,0-.15,0-.23,0-.07,0-.1a.11.11,0,0,1,0-.16.41.41,0,0,1,.52.05l.12.2C1165.88,995.5,1165.84,995.53,1165.74,995.51Z"/><path class="cls-224" d="M1170.36,990.88c0-.18-.1-.32-.17-.47s-.15-.36,0-.51l.13.13a.66.66,0,0,0,.13.49A.23.23,0,0,1,1170.36,990.88Z"/><path class="cls-225" d="M1172.61,992.61c-.16-.07-.14-.27-.27-.36s0,.18-.07.26a.52.52,0,0,1-.08-.45s0,0,0-.07l0,0a.2.2,0,0,1-.1-.24c.37.12.45.44.55.76A.1.1,0,0,1,1172.61,992.61Z"/><path class="cls-226" d="M1163.88,994.1a2.55,2.55,0,0,1,1.1-.08c0,.08.15.18.13.25s-.16.05-.25.05c-.16-.15-.34-.1-.52-.06a.11.11,0,0,1-.12,0C1164.13,994.09,1164,994.13,1163.88,994.1Z"/><path class="cls-227" d="M1168,988.83l-.11.12h0c-.07-.08,0-.17,0-.26.3-.27.38-.27.58,0s0,.28-.11.36l0-.2A.26.26,0,0,0,1168,988.83Z"/><path class="cls-228" d="M1167.45,996.69c-.17-.21-.26-.5-.63-.55a.42.42,0,0,1,.51,0c.07,0,.08.09.11.13a.39.39,0,0,1,.11.22C1167.46,996.53,1167.46,996.61,1167.45,996.69Z"/><path class="cls-229" d="M1171.66,995.21a.11.11,0,0,1,.09-.13c.11,0,.18.11.14.24a1.39,1.39,0,0,1-.23.61C1171.51,995.67,1171.87,995.43,1171.66,995.21Z"/><path class="cls-230" d="M1172.53,993.34c-.2-.1-.18-.29-.14-.44s.2-.08.31,0S1172.79,993.25,1172.53,993.34Z"/><path class="cls-231" d="M1169.49,990.27c0,.05,0,.09.1.08a.16.16,0,0,1,.22,0,.93.93,0,0,1-.62.19C1169.19,990.34,1169.3,990.26,1169.49,990.27Z"/><path class="cls-232" d="M1165.73,995.2h-.54a.11.11,0,0,1,0-.08s0,0,0,0,.18,0,.24-.1C1165.68,994.84,1165.74,994.88,1165.73,995.2Z"/><path class="cls-233" d="M1165,992.62a.56.56,0,0,1,0-.66c0-.05.08-.05.13,0v.44C1165,992.47,1165.06,992.57,1165,992.62Z"/><path class="cls-234" d="M1165.74,995.51l.11-.11c.08,0,.16,0,.2.1-.22.1-.28.4-.58.48C1165.45,995.74,1165.64,995.65,1165.74,995.51Z"/><path class="cls-235" d="M1169,997.12c0-.26,0-.55-.21-.77.08-.1.15-.08.2,0s0,.17.12.23a.62.62,0,0,1,0,.53Z"/><path class="cls-236" d="M1169.94,996.69a.24.24,0,0,0-.23.1h-.21l-.12-.09c0-.12-.06-.25.08-.33h.15a.06.06,0,0,1,0,.07s0,0,0,0h0s0,0,0,0l0,0,.29.05S1170,996.65,1169.94,996.69Z"/><path class="cls-237" d="M1164.13,995.08c-.2-.08-.06-.33-.22-.42a.38.38,0,0,1,.21-.33h0l.07.06v0A.73.73,0,0,0,1164.13,995.08Z"/><path class="cls-238" d="M1171.11,992.35c-.08,0-.15,0-.15-.12a.17.17,0,0,1,.16-.17c.07,0,.15,0,.16.08A.18.18,0,0,1,1171.11,992.35Z"/><path class="cls-239" d="M1165.42,991.77l.17-.35c.05,0,.14-.13.13,0a1,1,0,0,1-.25.61C1165.37,992,1165.42,991.85,1165.42,991.77Z"/><path class="cls-240" d="M1164.35,992.09V992c0-.2.12-.14.22-.1l.1.11a.24.24,0,0,1,.06.11.2.2,0,0,1,0,.21.23.23,0,0,1-.25,0A1,1,0,0,1,1164.35,992.09Z"/><path class="cls-241" d="M1165,992.62a.22.22,0,0,1,.11-.22l.16.11a.17.17,0,0,1,0,.27c-.1.1-.17,0-.24-.09Z"/><path class="cls-242" d="M1169,992.61v.48a.52.52,0,0,1-.21-.48Z"/><path class="cls-243" d="M1165.54,991.15V991c.12-.14.15-.34.3-.46a.13.13,0,0,1,0,.16C1165.79,990.9,1165.78,991.11,1165.54,991.15Z"/><path class="cls-244" d="M1166.07,993.24c-.1,0-.12.13-.12.23-.22-.17-.1-.38-.1-.67A1,1,0,0,1,1166.07,993.24Z"/><path class="cls-245" d="M1164.31,994.21c.38-.16.43-.15.55.11l-.32,0C1164.47,994.25,1164.36,994.31,1164.31,994.21Z"/><path class="cls-246" d="M1168.31,992.39a.19.19,0,0,1-.11.22l-.18-.55s0-.11.09-.12S1168.11,992.3,1168.31,992.39Z"/><path class="cls-247" d="M1169.48,990.89c0-.29.24-.25.44-.2t0,.06s0,0,0,0S1169.67,991,1169.48,990.89Z"/><path class="cls-248" d="M1169.1,988.94l-.13,0c0-.18.11-.24.27-.23l.46,0c0,.1,0,.13-.1.15S1169.26,988.83,1169.1,988.94Z"/><path class="cls-249" d="M1167.44,996.26l-.11-.13.05-.27C1167.69,996,1167.69,996,1167.44,996.26Z"/><path class="cls-250" d="M1169.69,995.93c0-.17.19-.12.26-.21a.08.08,0,0,1,.11,0,.37.37,0,0,1,0,.11c0,.15-.19.15-.3.19l-.1,0Z"/><path class="cls-251" d="M1169.1,988.94c.15-.17.33-.07.5-.09s.05,0,0,.06l0,0a.34.34,0,0,0,0,.1Z"/><path class="cls-222" d="M1168.23,993.77c.11.24,0,.52.09.77l-.06,0c-.2-.23-.09-.49-.08-.74Z"/><path class="cls-252" d="M1169.92,990.79v-.1c.17,0,.28.14.44.2,0,.09,0,.24-.16.11Z"/><path class="cls-253" d="M1166.16,989.17a.12.12,0,0,1-.1.11c-.22-.29.06-.32.22-.42a.11.11,0,0,1,0,.13s0,0,0,.07l0,.05Z"/><path class="cls-254" d="M1169.08,997.12l0-.53a.14.14,0,0,0,0-.09c.17.13.09.36.21.52l-.12.12Z"/><path class="cls-236" d="M1170.47,996.59s.1,0,.09-.11h.12a.94.94,0,0,1,.12.22c0,.11-.14.14-.24.17a.91.91,0,0,1-.13-.19A.09.09,0,0,1,1170.47,996.59Z"/><path class="cls-255" d="M1164.57,992.18l.18.1a.26.26,0,0,1-.22.2c0-.09-.18-.08-.19-.2A.29.29,0,0,1,1164.57,992.18Z"/><path class="cls-256" d="M1165.41,995c-.05.1-.15.11-.24.12s-.19,0-.24-.08a.2.2,0,0,1,0-.13C1165.12,994.93,1165.24,995,1165.41,995Z"/><path class="cls-257" d="M1166.05,996.79c-.13.24-.28.14-.43,0s0,0,0-.07l0,0h.11a1.26,1.26,0,0,1,.33.1Z"/><path class="cls-258" d="M1165,995c0,.1.1.11.19.11a.36.36,0,0,1,0,.1v.12l-.31-.1V995S1164.94,994.93,1165,995Z"/><path class="cls-259" d="M1164.31,994.21a.32.32,0,0,1,.23.09l-.3.14,0,0,0,0,0,0,.1-.12Z"/><path class="cls-222" d="M1168.11,991.94l-.09.12-.16-.3.14-.14A.35.35,0,0,1,1168.11,991.94Z"/><path class="cls-260" d="M1167.31,997.22c0,.06.1.11.1.17s0,.18-.15.14-.1-.12,0-.2a.52.52,0,0,1,.11-.1Z"/><path class="cls-261" d="M1170.6,991.43c0,.06-.06.09-.11.08s-.14,0-.13-.12.05-.08.11-.08S1170.6,991.35,1170.6,991.43Z"/><path class="cls-262" d="M1165.42,996.78c-.08,0-.22-.06-.18-.13s.2-.06.29,0A.18.18,0,0,1,1165.42,996.78Z"/><path class="cls-263" d="M1166.06,996.8c-.12,0-.25,0-.33-.1v-.12A.51.51,0,0,1,1166.06,996.8Z"/><path class="cls-264" d="M1168.51,996c.08-.08.19-.14.26,0s-.06.14-.15.16S1168.51,996.1,1168.51,996Z"/><path class="cls-265" d="M1166.48,988.72c0-.09.14-.16.17-.1s-.05.19-.17.23a.09.09,0,0,1,0-.09S1166.47,988.72,1166.48,988.72Z"/><path class="cls-266" d="M1167.55,993.36c0,.07.07.09.12.12s-.19.15-.26.07S1167.46,993.39,1167.55,993.36Z"/><path class="cls-267" d="M1168.84,989.59l.22.21C1168.75,989.79,1168.75,989.79,1168.84,989.59Z"/><path class="cls-268" d="M1169.6,989v-.1l.1-.1c.06,0,.17,0,.17,0S1169.72,988.94,1169.6,989Z"/><path class="cls-269" d="M1169.7,996.05a.37.37,0,0,1-.14,0c-.07-.06-.11-.18,0-.22s.09.12.17.14l.06,0A.19.19,0,0,1,1169.7,996.05Z"/><path class="cls-270" d="M1164.56,991.85a.23.23,0,0,0-.22.1c-.14-.06-.12-.13,0-.2S1164.52,991.73,1164.56,991.85Z"/><path class="cls-271" d="M1171.1,993.14c-.09.12-.15,0-.19,0s0-.14.1-.14S1171.18,993,1171.1,993.14Z"/><path class="cls-272" d="M1168.32,996.17a.22.22,0,0,1-.31.06.4.4,0,0,1,.3-.15s0,0,0,.06Z"/><path class="cls-273" d="M1168.32,996.17a.28.28,0,0,1,0-.09l.2-.06.11.12Z"/><path class="cls-198" d="M1170.45,996.69c.1,0,.11.11.11.19s-.15-.08-.19-.16S1170.41,996.66,1170.45,996.69Z"/><path class="cls-236" d="M1169.81,996.37a.34.34,0,0,1,.33.1l-.3,0s-.07,0-.06,0S1169.8,996.37,1169.81,996.37Z"/><path class="cls-274" d="M1167.47,991.19c-.06,0-.12.06-.14.14s-.12-.1-.07-.16S1167.4,991.12,1167.47,991.19Z"/><path class="cls-275" d="M1164.74,994.76c-.08,0-.14-.14,0-.18s.13.11.17.18A.07.07,0,0,1,1164.74,994.76Z"/><path class="cls-276" d="M1171.1,993.14,1171,993c.07,0,.16-.05.19.06S1171.18,993.13,1171.1,993.14Z"/><path class="cls-198" d="M1170.8,996.71a.22.22,0,0,1-.12-.22C1170.84,996.5,1170.89,996.56,1170.8,996.71Z"/><path class="cls-277" d="M1166.91,995.51h-.21a.16.16,0,0,1,.25-.08S1167,995.5,1166.91,995.51Z"/><path class="cls-278" d="M1172.31,991.1h.09c0,.07,0,.18-.06.17S1172.3,991.17,1172.31,991.1Z"/><path class="cls-279" d="M1172.61,992.61l0-.12a.22.22,0,0,1,.07.22A.12.12,0,0,1,1172.61,992.61Z"/><path class="cls-280" d="M1165.08,991.74s.06-.08.09,0,0,.11-.07.15A.08.08,0,0,1,1165.08,991.74Z"/><path class="cls-281" d="M1170.05,995.73h-.1q0-.09.06-.09a.09.09,0,0,1,.1.1Z"/><path class="cls-236" d="M1169.83,996.26h-.25C1169.67,996.13,1169.75,996.18,1169.83,996.26Z"/><path class="cls-282" d="M1169.81,996.37l0,.08-.23,0a.17.17,0,0,1,0-.1Z"/><path class="cls-283" d="M1165.42,996.78l.11-.1.09,0v.1Z"/><path class="cls-221" d="M1166.39,989.92h.22C1166.53,990,1166.45,990.13,1166.39,989.92Z"/><path class="cls-201" d="M1167.86,988.69l0,.26C1167.67,988.88,1167.76,988.78,1167.86,988.69Z"/><path class="cls-267" d="M1169.11,989.58h-.27C1168.92,989.44,1169,989.51,1169.11,989.58Z"/><path class="cls-284" d="M1165.85,990.73v-.16s0-.07.05-.07.07,0,.08.07Z"/><path class="cls-285" d="M1165.08,991.74l0,.13s0,.06,0,.09H1165C1165,991.87,1165,991.77,1165.08,991.74Z"/><path class="cls-236" d="M1170.35,996.47a.21.21,0,0,1,.25-.08l0,.1h-.2Z"/><path class="cls-281" d="M1170.05,995.73h.06v.1Z"/><path class="cls-209" d="M1166.48,988.72v.13h-.1C1166.37,988.77,1166.42,988.75,1166.48,988.72Z"/><path class="cls-236" d="M1169.7,996.05l0-.1a.19.19,0,0,1,.06.07Z"/><path class="cls-209" d="M1166.27,989v-.13h.09C1166.4,988.93,1166.33,989,1166.27,989Z"/><path class="cls-239" d="M1165.38,991.53l0,.11c-.05,0-.1,0-.11-.11Z"/><path class="cls-239" d="M1165.17,991.44a.13.13,0,0,1,.13.09A.11.11,0,0,1,1165.17,991.44Z"/><path class="cls-255" d="M1164.72,992.07l-.06-.11Z"/><path class="cls-194" d="M1172.19,990.45a.12.12,0,0,1-.12-.08h.1S1172.18,990.42,1172.19,990.45Z"/><path class="cls-286" d="M1164.74,994.76h.12s0,0,0,.09l0,0C1164.79,994.87,1164.76,994.82,1164.74,994.76Z"/><path class="cls-239" d="M1164.86,991.22a.12.12,0,0,1,.12.09A.12.12,0,0,1,1164.86,991.22Z"/><path class="cls-267" d="M1169.17,989.79l.12-.08A.1.1,0,0,1,1169.17,989.79Z"/><path class="cls-239" d="M1164.73,991.12a.14.14,0,0,1,.13.1A.13.13,0,0,1,1164.73,991.12Z"/><path class="cls-221" d="M1166.05,989.82a.14.14,0,0,1-.09-.14A.14.14,0,0,1,1166.05,989.82Z"/><path class="cls-267" d="M1169.27,989.48a.14.14,0,0,1-.15.1Z"/><path class="cls-282" d="M1169.94,996.69l0-.08a.11.11,0,0,1,.13.08h-.09Z"/><path class="cls-282" d="M1170.45,996.69a.11.11,0,0,1-.08,0,.1.1,0,0,1,.1-.13S1170.46,996.66,1170.45,996.69Z"/><path class="cls-287" d="M1165,995h-.11a.1.1,0,0,1,0-.09l0,0a.08.08,0,0,1,.09,0A.38.38,0,0,0,1165,995Z"/><path class="cls-221" d="M1165.92,989.6a.1.1,0,0,1-.08-.11A.09.09,0,0,1,1165.92,989.6Z"/><path class="cls-211" d="M1170,989.3l-.08.09,0-.12h0Z"/><path class="cls-253" d="M1166.38,989.08a.12.12,0,0,1-.12.08.08.08,0,0,1,0-.1h0Z"/><path class="cls-282" d="M1169.61,996.56s-.06,0,0,0l0,0A.09.09,0,0,1,1169.61,996.56Z"/><path class="cls-288" d="M1168.65,996.81c0,.05-.05.09-.11.07a.08.08,0,0,1,0-.12.09.09,0,0,1,.08,0A.08.08,0,0,1,1168.65,996.81Z"/><path class="cls-184" d="M1172.19,992l0,.06,0,0A.27.27,0,0,0,1172.19,992Z"/><path class="cls-289" d="M1165.33,990.39s-.08,0-.06-.11.06-.08.11,0a.09.09,0,0,1,0,.08S1165.4,990.41,1165.33,990.39Z"/><path class="cls-290" d="M1164.57,992.18c0,.11-.13.12-.23.1v-.19C1164.44,992.07,1164.53,992.06,1164.57,992.18Z"/><path class="cls-239" d="M1165.3,991.23c.06,0,.11,0,.1.09Z"/><path class="cls-239" d="M1165.09,991.1a.13.13,0,0,1,.13.09A.15.15,0,0,1,1165.09,991.1Z"/><path class="cls-239" d="M1165,991a.11.11,0,0,1,.12.09A.12.12,0,0,1,1165,991Z"/><path class="cls-291" d="M1169.87,993.06a1.39,1.39,0,0,1-.66.11c-.07,0-.14,0-.14-.12a.16.16,0,0,1,.13-.19A.79.79,0,0,1,1169.87,993.06Z"/><path class="cls-184" d="M1168,988.83c.09-.2.19-.2.3,0A.32.32,0,0,1,1168,988.83Z"/><path class="cls-292" d="M1171.42,990.94c0,.06-.06.06-.11,0s-.06,0,0-.08.07-.08.12,0S1171.41,990.91,1171.42,990.94Z"/><path class="cls-293" d="M1167.45,994.17c0,.06,0,.12-.07.12a.07.07,0,0,1-.08-.09c0-.05,0-.11.08-.12S1167.44,994.14,1167.45,994.17Z"/><path class="cls-294" d="M1169.81,990.35h-.22c0-.11,0-.22.16-.2S1169.83,990.27,1169.81,990.35Z"/><path class="cls-295" d="M1169.23,994.28s-.06,0-.06,0a.13.13,0,0,1,0-.17s0,.05,0,.08A.1.1,0,0,1,1169.23,994.28Z"/><path class="cls-296" d="M1166.27,989.06a.38.38,0,0,1,0,.1h-.1Z"/><path class="cls-282" d="M1169.38,996.7l.12.09C1169.44,996.8,1169.4,996.76,1169.38,996.7Z"/><path class="cls-297" d="M1168.18,993.83c0,.24-.06.5.08.74,0,.06-.11.06-.12,0A1,1,0,0,1,1168.18,993.83Z"/><path class="cls-298" d="M1164.15,994.37h0v0S1164.15,994.4,1164.15,994.37Z"/></g></svg>