<svg id="Layer_1" data-name="Layer 1" xmlns="http://www.w3.org/2000/svg" viewBox="0 0 1417.32 1417.32"><defs><style>.cls-1{fill:#101010;}.cls-2{fill:#f6d00e;}.cls-3{fill:#e7c325;}.cls-4{fill:#fff;}.cls-5{fill:#171717;}</style></defs><title>kedan polos 2xhdpi</title><path class="cls-1" d="M976.08,816.33h-.26c-75.69-.13-137.26-61.82-137.26-137.51S900.13,541.45,975.8,541.3h.33a52.82,52.82,0,0,0,1.07-105.62c-.91,0-1.8,0-2.7,0a241.81,241.81,0,0,0-136.81,43.18,52.85,52.85,0,0,0-52-43.2,52.87,52.87,0,0,0-52.81,52.82V678.82c0,75.83-61.69,137.51-137.53,137.51S457.88,754.65,457.88,678.82,519.56,541.3,595.39,541.3a52.82,52.82,0,0,0,1.4-105.62c-.91,0-1.79,0-2.69,0A243.22,243.22,0,1,0,733.8,878.78a52.82,52.82,0,0,0,103.88,0A241.87,241.87,0,0,0,974.5,922h1.3c.47,0,.93,0,1.36,0a52.83,52.83,0,0,0-1.08-105.64ZM748.76,488.48a37,37,0,0,1,74,0v1.64q-3.23,2.63-6.36,5.35l-1.16,1c-.7.62-1.41,1.24-2.1,1.88l-.69.62-2.19,2c-.39.36-.77.72-1.16,1.1-.58.53-1.16,1.08-1.73,1.64s-1.19,1.15-1.78,1.75c-.23.2-.45.42-.67.65-.85.83-1.68,1.68-2.52,2.52l-.14.16c-.81.82-1.6,1.64-2.4,2.47l-.72.77c-.56.59-1.11,1.18-1.67,1.79s-1.16,1.26-1.72,1.89l-.83.91c-.57.64-1.15,1.28-1.7,1.93-.43.48-.84,1-1.26,1.44s-.7.81-1,1.23q-.84,1-1.65,2c-.28.34-.57.68-.84,1-.58.68-1.13,1.37-1.69,2.06-.31.39-.62.77-.92,1.16-.56.68-1.1,1.37-1.63,2.06-.78,1-1.55,2-2.31,3s-1.68,2.25-2.51,3.38c-1,1.31-1.88,2.61-2.8,3.94-.55.8-1.11,1.6-1.66,2.41q-1.25,1.82-2.44,3.66c-.74,1.12-1.47,2.25-2.18,3.39q-2.12,3.33-4.09,6.7l-.1.18c-.62,1.05-1.23,2.1-1.83,3.16l-.45.8c-.55,1-1.1,2-1.64,3l-.06.11c-.63,1.15-1.25,2.32-1.85,3.48s-1.23,2.36-1.82,3.56-1.18,2.39-1.76,3.59-1,2.16-1.53,3.25c-.05.12-.11.24-.17.36-.49,1.06-1,2.12-1.43,3.18l-.39.89c-.45,1-.89,2-1.31,3.06l-.15.34c-.5,1.18-1,2.35-1.45,3.53s-1,2.46-1.45,3.7Zm74,380.68a37,37,0,1,1-74,0v-1.64l.65-.53c.85-.69,1.69-1.38,2.52-2.09l.69-.59c.86-.72,1.71-1.45,2.56-2.19l.39-.34,3-2.67c.87-.79,1.75-1.59,2.61-2.4l.9-.84c.87-.82,1.74-1.66,2.6-2.5s1.9-1.84,2.83-2.78l.24-.24c.94-1,1.88-1.9,2.81-2.86l0,0c1-1,1.93-2,2.88-3s1.9-2.06,2.83-3.1,1.86-2.09,2.78-3.15,1.65-1.92,2.48-2.9l.53-.64c.66-.79,1.32-1.59,2-2.39q.45-.54.87-1.08l.45-.55c.11-.15.23-.29.34-.43.13.16.26.31.38.47.51.64,1,1.27,1.54,1.9l.68.82.79.95c.26.32.52.64.79,1l.29.34c.49.61,1,1.21,1.52,1.8.12.12.22.25.32.37s.46.54.7.8l.7.79,0,0c.42.49.86,1,1.31,1.48l.1.12.59.66c.6.67,1.2,1.33,1.83,2l.26.29c.22.25.46.5.7.76.63.68,1.27,1.36,1.92,2l.24.25,1,1.07c.65.68,1.31,1.34,2,2l0,0,1.16,1.16c.59.59,1.18,1.18,1.79,1.76.26.27.54.54.82.8.51.5,1,1,1.54,1.47l.78.74c.25.25.52.49.78.73,1,1,2.06,1.91,3.1,2.84s2,1.81,3.05,2.71l.11.09c.66.58,1.32,1.14,2,1.7l.3.26.77.65c.5.43,1,.84,1.5,1.25l1.59,1.31Z"/><path class="cls-2" d="M1012.78,869.17a37.21,37.21,0,0,1-36,37h-2a224.87,224.87,0,0,1-139.15-48.64q-3.54-2.81-7-5.75c-.56-.47-1.14-1-1.7-1.46s-.88-.75-1.31-1.15l-.16-.15c-.35-.3-.71-.61-1-.93-.78-.69-1.55-1.38-2.31-2.1a.06.06,0,0,1,0-.05l0,0a1.85,1.85,0,0,0-.14-.14c-.7-.63-1.39-1.28-2.09-1.94l-.64-.61-.08-.08c-.74-.68-1.45-1.39-2.18-2.11-.43-.41-.84-.82-1.26-1.25s-.84-.84-1.26-1.27c-.85-.84-1.67-1.7-2.49-2.56s-1.59-1.66-2.37-2.5l-.06-.08q-2.45-2.62-4.78-5.32c-.54-.6-1.06-1.21-1.57-1.83l-.14-.17c-.27-.28-.51-.57-.75-.86l-.24-.3c-.46-.54-.91-1.06-1.35-1.61-.24-.28-.47-.57-.69-.86-.55-.65-1.09-1.32-1.6-2-.29-.36-.58-.71-.84-1.07-.06-.06-.12-.15-.19-.22-.3-.39-.6-.77-.89-1.16-.15-.19-.31-.38-.46-.58s-.21-.27-.31-.4h0l.77-1.12c.24-.34.46-.67.68-1l.68-1c.89-1.33,1.76-2.67,2.63-4s1.72-2.7,2.55-4.06c.42-.68.84-1.36,1.24-2s.83-1.37,1.23-2.06l1.2-2.07c.8-1.38,1.57-2.76,2.34-4.15.29-.53.58-1.06.86-1.59.4-.73.79-1.47,1.17-2.21s.7-1.34,1-2c.44-.84.87-1.68,1.3-2.53.86-1.74,1.7-3.47,2.52-5.23.35-.75.7-1.49,1-2.24.08-.16.15-.33.23-.5l.89-2c.12-.26.24-.53.35-.8.29-.66.58-1.31.86-2,.12-.26.22-.53.34-.79.27-.62.53-1.25.78-1.87.33-.8.66-1.6,1-2.4l.73-1.84q.67-1.71,1.32-3.45l.36-1c.44-1.19.88-2.39,1.29-3.6.74-2.09,1.45-4.18,2.12-6.29.14-.44.29-.88.42-1.33.36-1.13.7-2.25,1-3.39s.66-2.28,1-3.42c.21-.76.43-1.52.63-2.29s.38-1.41.57-2.12c.3-1.14.58-2.28.86-3.41a1.47,1.47,0,0,0,.06-.27c.29-1.13.55-2.27.81-3.4,0-.15.08-.31.11-.46A153.7,153.7,0,0,0,975.8,832.18H976A37.07,37.07,0,0,1,1012.78,869.17Z"/><path class="cls-3" d="M1012.78,488.48a37,37,0,0,1-36.71,37h-.28A153.4,153.4,0,0,0,822.72,678.82a225.46,225.46,0,0,1-43.4,133.6h0c-.09.14-.19.27-.29.4l0,0a227.45,227.45,0,0,1-43.07,44.64,224.91,224.91,0,0,1-140.54,48.65c-125.34,0-227.31-102-227.31-227.32,0-124.74,101.46-226.7,226.18-227.31h2.09a37,37,0,0,1-1,73.94C510.82,525.45,442,594.26,442,678.82s68.79,153.36,153.36,153.36,153.37-68.79,153.37-153.36A227.31,227.31,0,0,1,974.69,451.51h2.07A37.21,37.21,0,0,1,1012.78,488.48Z"/><path class="cls-4" d="M795.54,817h0l.31.4Z"/><path class="cls-5" d="M1105.92,760.4c3.38,17.52-8.52,28.49-20.16,34.06a65.63,65.63,0,0,1-21.45,6.48c-14.13,1.52-26.08-1.84-33.46-15.21l-1.19-3.68a2.85,2.85,0,0,1,.74-.73c11.27-7.78,23.8-9.61,37.13-8.15a45,45,0,0,0,18.46-1.3,35.85,35.85,0,0,0,16.38-10.31C1103.24,760.61,1104.07,758.71,1105.92,760.4Z"/><path class="cls-5" d="M1030.16,781.89l-.5.16-.59-1.84c-1.74-10.56,1.7-19.27,9.45-26.44a45,45,0,0,1,13.74-8.65c8.57-3.48,17.45-6,26.85-5.37,12.36.85,21.6,6.26,26.06,18.38-1.93,3.44-5.47,4.52-8.73,6-9.26,4.3-19,4.59-28.94,3.64-6.64-.63-13.17-.48-19.66,1.77a34.42,34.42,0,0,0-13.95,8.81A36.37,36.37,0,0,1,1030.16,781.89Z"/><path class="cls-5" d="M1105.92,576.43c3.38,17.52-8.52,28.48-20.16,34.06a65.86,65.86,0,0,1-21.45,6.47c-14.13,1.52-26.08-1.84-33.46-15.2l-1.19-3.68a2.89,2.89,0,0,1,.74-.74c11.27-7.77,23.8-9.6,37.13-8.14a45.12,45.12,0,0,0,18.46-1.3,35.93,35.93,0,0,0,16.38-10.31C1103.24,576.64,1104.07,574.74,1105.92,576.43Z"/><path class="cls-5" d="M1030.16,597.92l-.5.16-.59-1.84c-1.74-10.57,1.7-19.27,9.45-26.45a45.37,45.37,0,0,1,13.74-8.65c8.57-3.48,17.45-6,26.85-5.36,12.36.84,21.6,6.25,26.06,18.38-1.93,3.43-5.47,4.52-8.73,6-9.26,4.3-19,4.59-28.94,3.64-6.64-.64-13.17-.48-19.66,1.77a34.32,34.32,0,0,0-13.95,8.81A37.5,37.5,0,0,1,1030.16,597.92Z"/></svg>